<svg width="536" height="393" viewBox="0 0 536 393" fill="none" xmlns="http://www.w3.org/2000/svg">
<path d="M472.447 354.461C468.703 344.945 468.157 334.532 470.926 324.704C470.653 324.821 470.341 324.938 470.068 325.055C470.77 325.523 471.433 326.03 472.135 326.498C472.408 326.693 472.954 326.498 472.993 326.147C475.567 308.012 483.133 290.852 494.833 276.734C494.521 276.656 494.17 276.578 493.858 276.461C500.254 303.254 492.337 330.749 482.665 355.709C482.392 356.411 483.523 356.723 483.796 356.021C493.546 330.827 501.424 303.176 494.989 276.149C494.911 275.759 494.287 275.564 494.014 275.876C482.236 290.15 474.514 307.505 471.901 325.835C472.174 325.718 472.486 325.601 472.759 325.484C472.057 325.016 471.394 324.509 470.692 324.041C470.38 323.807 469.912 324.041 469.834 324.392C467.026 334.415 467.533 345.101 471.355 354.773C471.589 355.475 472.72 355.163 472.447 354.461Z" fill="#E8E8E8"/>
<path d="M496.783 303.41C499.24 297.443 502.321 291.788 505.948 286.406C505.675 286.484 505.402 286.562 505.129 286.601C505.597 286.952 506.104 287.303 506.572 287.615C506.845 287.81 507.235 287.654 507.391 287.42C510.784 281.297 514.762 275.525 519.325 270.221C519.013 270.182 518.701 270.143 518.389 270.104C524.395 280.439 519.832 293.192 516.166 303.527C512.188 314.876 507.235 325.874 501.073 336.17C497.563 342.02 493.663 347.636 489.373 352.901C488.905 353.486 489.724 354.305 490.192 353.72C498.07 344.048 504.544 333.401 509.809 322.13C512.422 316.553 514.723 310.859 516.829 305.087C518.896 299.354 520.924 293.504 521.86 287.459C522.835 281.297 522.523 274.979 519.364 269.48C519.169 269.168 518.701 269.09 518.428 269.363C513.826 274.784 509.77 280.595 506.299 286.796C506.572 286.718 506.845 286.64 507.118 286.601C506.65 286.25 506.143 285.899 505.675 285.587C505.402 285.392 505.051 285.548 504.856 285.782C501.19 291.203 498.109 296.975 495.574 303.059C495.379 303.8 496.51 304.112 496.783 303.41Z" fill="#E8E8E8"/>
<path d="M493.234 277.124C488.086 300.953 480.247 324.158 476.542 348.26C476.425 349.001 477.556 349.313 477.673 348.572C481.378 324.431 489.217 301.226 494.365 277.436C494.521 276.695 493.39 276.383 493.234 277.124Z" fill="#E8E8E8"/>
<path d="M518.701 270.377C514.684 294.869 502.75 316.904 490.972 338.393C490.621 339.056 491.635 339.641 491.986 338.978C503.803 317.372 515.776 295.259 519.832 270.689C519.949 269.948 518.818 269.636 518.701 270.377Z" fill="#E8E8E8"/>
<path d="M477.244 305.789C480.013 310.079 481.846 314.837 482.626 319.907C482.743 320.648 483.874 320.336 483.757 319.595C482.977 314.447 481.105 309.572 478.258 305.204C477.829 304.58 476.815 305.165 477.244 305.789Z" fill="#E8E8E8"/>
<path d="M485.434 312.887C489.373 306.842 493.312 300.758 497.251 294.713C497.68 294.089 496.666 293.504 496.237 294.128C492.298 300.173 488.359 306.257 484.42 312.302C483.991 312.926 485.005 313.511 485.434 312.887Z" fill="#E8E8E8"/>
<path d="M501.112 292.334C500.956 300.446 501.541 308.519 502.789 316.514C502.906 317.255 504.037 316.943 503.92 316.202C502.672 308.285 502.126 300.329 502.282 292.334C502.321 291.554 501.151 291.554 501.112 292.334Z" fill="#E8E8E8"/>
<path d="M512.422 297.404C515.62 294.167 518.74 290.774 521.704 287.303C522.172 286.718 521.353 285.899 520.885 286.484C517.921 289.955 514.84 293.309 511.603 296.585C511.057 297.131 511.876 297.95 512.422 297.404Z" fill="#E8E8E8"/>
<path d="M49.8039 334.22C41.3019 328.175 35.4129 319.01 33.4239 308.753C33.3069 308.987 33.1509 309.221 33.0339 309.455C33.9699 309.182 34.8279 309.416 35.5299 310.118C36.0369 310.625 36.6999 310.001 36.4659 309.416C31.2789 297.716 28.5489 285.041 28.5099 272.249C28.3539 272.444 28.2369 272.639 28.0809 272.795C28.4709 272.99 28.8999 273.224 29.2899 273.419C29.5629 273.887 30.4209 273.731 30.3819 273.107C30.1089 269.714 29.8359 266.321 29.5629 262.928C29.3289 259.925 28.9779 256.766 30.9279 254.231C30.6549 254.309 30.3819 254.387 30.1089 254.426C32.8389 256.376 34.4379 259.535 36.0369 262.382C37.5969 265.19 39.0789 268.076 40.4829 270.962C43.4079 277.046 45.9039 283.325 47.9709 289.76C52.0659 302.318 54.5229 315.344 55.3419 328.526C55.3809 329.267 56.5509 329.267 56.5119 328.526C55.6539 314.798 53.0409 301.187 48.6729 288.122C46.5279 281.726 43.9929 275.486 41.0289 269.441C39.5079 266.321 37.9089 263.279 36.1929 260.276C34.7109 257.663 33.1899 255.167 30.6939 253.373C30.4209 253.178 30.0699 253.334 29.8749 253.568C28.1199 255.869 28.0809 258.755 28.2369 261.563C28.5099 265.385 28.8609 269.207 29.1729 273.068C29.5239 272.951 29.9139 272.873 30.2649 272.756C29.6799 271.742 28.8609 271.43 27.7299 271.586C27.4959 271.625 27.3009 271.898 27.3009 272.132C27.3789 285.158 30.1479 297.989 35.4129 309.884C35.7249 309.65 36.0369 309.416 36.3489 309.182C35.3349 308.129 34.0869 307.817 32.7219 308.207C32.4099 308.285 32.2539 308.597 32.3319 308.909C34.3989 319.478 40.4829 328.838 49.2189 335.078C49.8429 335.663 50.4279 334.649 49.8039 334.22Z" fill="#E8E8E8"/>
<path d="M46.294 280.868C45.943 278.645 45.67 276.422 45.553 274.199C45.436 272.132 44.851 269.051 46.411 267.413C47.308 266.516 47.737 266.087 47.932 264.722C48.205 262.538 48.205 260.315 48.439 258.131C48.907 253.568 49.57 249.083 50.506 244.598C50.662 243.857 50.74 242.453 51.13 241.79C52.066 240.269 53.509 241.868 54.25 242.609C55.576 243.935 56.629 245.495 57.526 247.133C61.27 253.997 62.284 262.46 63.298 270.104C64.429 278.606 64.897 287.186 64.663 295.766C64.429 305.516 63.103 315.227 59.749 324.431C59.476 325.133 60.607 325.445 60.88 324.743C67.393 306.764 66.808 286.367 64.117 267.725C62.986 259.808 61.777 250.799 56.98 244.091C55.927 242.648 52.729 238.046 50.662 240.113C49.57 241.166 49.492 243.623 49.219 244.988C48.712 247.562 48.244 250.136 47.893 252.749C47.542 255.284 47.269 257.819 47.035 260.354C46.918 261.719 47.035 263.279 46.723 264.605C46.411 265.892 45.475 266.282 44.851 267.296C43.837 268.856 44.227 271.313 44.305 273.068C44.422 275.759 44.734 278.45 45.163 281.141C45.28 281.921 46.411 281.609 46.294 280.868Z" fill="#E8E8E8"/>
<path d="M51.0129 240.971C57.2919 265.307 59.0469 290.618 56.1999 315.578C56.1219 316.319 57.2919 316.319 57.3699 315.578C60.2169 290.501 58.4229 265.073 52.1439 240.659C51.9489 239.957 50.8179 240.269 51.0129 240.971Z" fill="#E8E8E8"/>
<path d="M29.2899 254.192C38.4549 277.631 45.5919 301.811 50.7009 326.459C50.8569 327.2 51.9879 326.888 51.8319 326.147C46.7619 301.499 39.5859 277.319 30.4209 253.88C30.1089 253.178 28.9779 253.49 29.2899 254.192Z" fill="#E8E8E8"/>
<path d="M29.485 290.072C35.881 291.866 41.185 296.078 44.422 301.889C44.773 302.552 45.787 301.967 45.436 301.304C42.043 295.259 36.427 290.852 29.797 288.98C29.056 288.746 28.744 289.877 29.485 290.072Z" fill="#E8E8E8"/>
<path d="M42.4325 274.94C41.7309 280.985 41.614 287.03 42.0817 293.075C42.1207 293.816 43.2901 293.816 43.2511 293.075C42.7834 287.03 42.9003 280.985 43.6019 274.94C43.6799 274.199 42.5105 274.199 42.4325 274.94Z" fill="#E8E8E8"/>
<path d="M46.567 267.14C51.871 274.043 55.576 281.999 57.448 290.501C57.604 291.242 58.735 290.93 58.579 290.189C56.668 281.609 52.963 273.536 47.581 266.555C47.152 265.931 46.138 266.516 46.567 267.14Z" fill="#E8E8E8"/>
<path d="M60.1389 253.1C58.1889 257.624 56.8239 262.304 56.0829 267.179C55.9659 267.92 57.0969 268.232 57.2139 267.491C57.9159 262.733 59.2419 258.131 61.1529 253.685C61.4649 253.022 60.4509 252.398 60.1389 253.1Z" fill="#E8E8E8"/>
<path d="M8.93195 362.105C30.0699 354.656 52.6119 360.584 73.8279 364.367C96.4869 368.384 119.38 371.036 142.312 372.245C155.299 372.947 168.286 373.181 181.312 372.947C182.053 372.947 182.053 371.777 181.312 371.777C157.873 372.167 134.395 371.075 111.073 368.54C99.2169 367.253 87.3999 365.576 75.6609 363.509C65.1699 361.676 54.7179 359.414 44.1489 358.166C32.2539 356.801 20.0469 356.957 8.61994 360.974C7.91794 361.247 8.22995 362.378 8.93195 362.105Z" fill="#E8E8E8"/>
<path d="M131.431 361.13C166.414 369.71 202.645 367.448 238.135 364.172C256.387 362.495 274.6 360.506 292.891 359.531C311.143 358.556 329.356 358.868 347.569 360.662C368.746 362.768 389.689 366.629 410.515 370.997C411.256 371.153 411.568 370.022 410.827 369.866C374.635 362.261 338.092 356.684 301.042 358.01C264.772 359.297 228.814 365.264 192.505 365.927C172.108 366.317 151.633 364.874 131.782 359.999C131.002 359.804 130.69 360.935 131.431 361.13Z" fill="#E8E8E8"/>
<path d="M284.272 385.895C312.976 379.967 342.187 385.583 370.774 389.366C399.205 393.11 427.831 393.734 456.301 390.107C472.057 388.118 487.618 384.92 502.867 380.63C503.608 380.435 503.296 379.304 502.555 379.499C474.904 387.299 446.239 391.355 417.496 391.472C403.222 391.511 389.026 390.536 374.869 388.742C360.4 386.909 346.009 384.53 331.501 383.165C315.628 381.683 299.599 381.527 283.921 384.803C283.219 384.92 283.531 386.051 284.272 385.895Z" fill="#E8E8E8"/>
<path d="M413.011 356.021C427.597 361.442 443.275 358.244 457.9 354.734C474.085 350.873 490.192 347.675 506.845 346.739C516.088 346.232 525.37 346.31 534.613 346.895C535.354 346.934 535.354 345.764 534.613 345.725C518.545 344.672 502.438 345.296 486.487 347.597C478.531 348.767 470.653 350.405 462.853 352.316C455.092 354.188 447.292 356.177 439.336 357.152C430.561 358.244 421.669 357.971 413.323 354.851C412.621 354.656 412.309 355.787 413.011 356.021Z" fill="#E8E8E8"/>
<path d="M401.194 231.143C400.063 234.653 398.893 238.124 397.762 241.634C397.489 242.531 397.216 243.389 397.489 244.325C397.879 245.573 399.205 246.314 399.244 247.718C399.478 247.523 399.751 247.328 399.985 247.172C395.383 245.807 395.539 253.139 395.695 255.713C395.968 260.822 397.606 265.736 400.336 270.026C400.726 270.65 401.74 270.065 401.35 269.441C399.4 266.399 398.035 263.045 397.333 259.496C396.943 257.585 395.578 247.055 399.673 248.264C400.024 248.381 400.414 248.069 400.414 247.718C400.414 246.782 400.063 246.158 399.517 245.417C398.503 243.974 398.581 242.921 399.127 241.244C400.18 237.968 401.272 234.731 402.325 231.455C402.559 230.714 401.428 230.402 401.194 231.143Z" fill="#E8E8E8"/>
<path d="M401.584 231.299C405.991 235.784 407.083 243.077 407.434 249.083C407.824 255.557 406.888 262.031 404.821 268.154C404.587 268.856 405.718 269.168 405.952 268.466C408.214 261.797 409.15 254.699 408.526 247.679C408.019 241.712 406.771 234.887 402.442 230.441C401.857 229.934 401.038 230.753 401.584 231.299Z" fill="#E8E8E8"/>
<path d="M408.565 248.654C409.345 243.428 410.671 238.358 412.504 233.405C412.231 233.522 411.919 233.639 411.646 233.756C412.465 234.302 413.284 234.887 414.103 235.433C414.493 235.706 414.961 235.355 415 234.926C415.351 226.229 422.137 219.56 423.97 211.292C423.58 211.292 423.229 211.292 422.839 211.292C425.959 230.09 422.02 249.668 411.88 265.814C411.49 266.438 412.504 267.023 412.894 266.399C423.19 249.98 427.129 230.09 423.97 210.98C423.892 210.395 422.956 210.434 422.839 210.98C420.967 219.404 414.181 226.073 413.83 234.926C414.142 234.77 414.415 234.575 414.727 234.419C413.908 233.873 413.089 233.288 412.27 232.742C411.919 232.508 411.529 232.781 411.412 233.093C409.579 238.046 408.253 243.116 407.473 248.342C407.317 249.083 408.448 249.395 408.565 248.654Z" fill="#E8E8E8"/>
<path d="M422.722 213.71C421.474 228.101 417.574 242.141 411.217 255.089C410.905 255.752 411.88 256.337 412.231 255.674C418.666 242.492 422.644 228.296 423.892 213.71C423.931 212.93 422.761 212.969 422.722 213.71Z" fill="#E8E8E8"/>
<path d="M401.038 232.235C402.637 243.857 404.158 255.713 401.701 267.296C401.545 268.037 402.676 268.349 402.832 267.608C405.367 255.791 403.807 243.74 402.169 231.923C402.091 231.182 400.96 231.494 401.038 232.235Z" fill="#E8E8E8"/>
<path d="M344.371 271.313C350.377 270.845 356.422 271.274 362.272 272.717C367.225 273.926 372.139 276.422 377.326 275.642C382.669 274.823 387.154 271.274 392.653 271.079C397.957 270.884 403.183 272.717 408.409 271.196C409.15 271.001 408.838 269.87 408.097 270.065C402.637 271.625 397.138 269.48 391.639 269.987C386.647 270.455 382.474 273.458 377.638 274.433C372.061 275.525 366.523 272.483 361.141 271.313C355.603 270.104 349.948 269.753 344.332 270.221C343.63 270.182 343.63 271.352 344.371 271.313Z" fill="#E8E8E8"/>
<path d="M0.351904 325.991C11.1159 336.053 26.7159 325.172 39.0789 329.189C39.7809 329.423 40.0929 328.292 39.3909 328.058C32.7999 325.913 26.0529 327.59 19.4229 328.604C13.2219 329.54 6.0849 329.696 1.1709 325.133C0.624901 324.665 -0.233096 325.484 0.351904 325.991Z" fill="#E8E8E8"/>
<path d="M43.9539 74.051C51.6759 76.469 59.8659 76.313 67.8609 76.157C75.5049 76.001 83.1099 75.494 90.6759 74.714C105.769 73.115 120.706 70.268 135.37 66.329C165.049 58.373 193.48 46.049 220.039 30.683C235.093 21.986 249.523 12.314 263.368 1.823C263.953 1.355 263.368 0.341004 262.783 0.809004C238.564 19.178 212.434 35.09 184.666 47.492C156.82 59.933 127.258 68.903 96.9549 72.803C88.6479 73.895 80.2629 74.597 71.8779 74.87C62.7519 75.182 53.1189 75.689 44.3049 72.92C43.5639 72.725 43.2519 73.817 43.9539 74.051Z" fill="#E8E8E8"/>
<path d="M245.935 14.303C256.348 23.312 268.633 29.747 281.269 35.09C294.841 40.823 308.881 45.581 323.155 49.247C351.391 56.579 380.68 59.855 409.813 58.958C426.427 58.451 443.782 57.32 459.655 52.016C460.357 51.782 460.045 50.651 459.343 50.885C445.225 55.643 429.976 56.852 415.195 57.593C400.882 58.295 386.53 57.983 372.295 56.657C343.474 54.005 315.043 47.258 288.133 36.611C273.43 30.8 258.883 23.897 246.832 13.484C246.169 12.977 245.35 13.796 245.935 14.303Z" fill="#E8E8E8"/>
<path d="M89.5449 34.232C103.858 42.5 120.901 44.528 137.047 46.244C153.661 47.999 170.431 48.467 187.162 47.726C220.156 46.244 252.994 40.004 284.194 29.201C301.783 23.117 318.826 15.59 335.167 6.73701C335.83 6.38601 335.245 5.37201 334.582 5.72301C305.839 21.362 274.795 32.711 242.776 39.497C210.679 46.283 177.568 48.467 144.847 45.815C135.565 45.074 126.244 44.021 117.079 42.344C107.68 40.628 98.4369 38.054 90.1299 33.257C89.5059 32.867 88.9209 33.881 89.5449 34.232Z" fill="#E8E8E8"/>
<path d="M137.593 59.543C137.593 64.379 137.593 69.254 137.593 74.09C137.593 74.831 138.762 74.831 138.762 74.09C138.762 69.254 138.762 64.379 138.762 59.543C138.762 58.763 137.593 58.763 137.593 59.543Z" fill="#161616"/>
<path d="M137.944 83.684C137.944 89.378 137.944 95.033 137.944 100.727C137.944 101.468 139.113 101.468 139.113 100.727C139.113 95.033 139.113 89.378 139.113 83.684C139.113 82.943 137.944 82.904 137.944 83.684Z" fill="#161616"/>
<path d="M157.834 99.674C157.834 106.772 157.834 113.87 157.834 120.968C157.834 121.709 159.003 121.709 159.003 120.968C159.003 113.87 159.003 106.772 159.003 99.674C159.003 98.894 157.834 98.894 157.834 99.674Z" fill="#161616"/>
<path d="M157.132 138.011C157.132 141.443 157.132 144.875 157.132 148.307C157.132 149.048 158.301 149.048 158.301 148.307C158.301 144.875 158.301 141.443 158.301 138.011C158.301 137.27 157.132 137.27 157.132 138.011Z" fill="#161616"/>
<path d="M197.614 33.257C197.614 39.536 197.614 45.815 197.614 52.094C197.614 52.835 198.783 52.835 198.783 52.094C198.783 45.815 198.783 39.536 198.783 33.257C198.783 32.516 197.614 32.516 197.614 33.257Z" fill="#161616"/>
<path d="M197.614 58.8021C197.614 63.5211 197.614 68.279 197.614 72.998C197.614 73.739 198.783 73.739 198.783 72.998C198.783 68.279 198.783 63.5211 198.783 58.8021C198.783 58.0611 197.614 58.0611 197.614 58.8021Z" fill="#161616"/>
<path d="M365.197 40.355C365.197 48.506 365.197 56.696 365.197 64.847C365.197 65.588 366.366 65.588 366.366 64.847C366.366 56.696 366.366 48.506 366.366 40.355C366.366 39.614 365.197 39.614 365.197 40.355Z" fill="#161616"/>
<path d="M364.846 74.441C364.846 78.692 364.846 82.982 364.846 87.233C364.846 87.974 366.015 87.974 366.015 87.233C366.015 82.982 366.015 78.692 366.015 74.441C366.015 73.7 364.846 73.7 364.846 74.441Z" fill="#161616"/>
<path d="M295.231 26.159C295.231 31.385 295.231 36.572 295.231 41.798C295.231 42.539 296.4 42.539 296.4 41.798C296.4 36.572 296.4 31.385 296.4 26.159C296.4 25.418 295.231 25.379 295.231 26.159Z" fill="#161616"/>
<path d="M295.621 56.696C295.621 61.415 295.621 66.173 295.621 70.892C295.621 71.633 296.79 71.633 296.79 70.892C296.79 66.173 296.79 61.415 296.79 56.696C296.79 55.955 295.621 55.955 295.621 56.696Z" fill="#161616"/>
<path d="M404.275 82.241C404.275 86.843 404.275 91.484 404.275 96.086C404.275 96.827 405.444 96.827 405.444 96.086C405.444 91.484 405.444 86.843 405.444 82.241C405.444 81.5 404.275 81.5 404.275 82.241Z" fill="#161616"/>
<path d="M404.626 105.68C404.626 109.346 404.626 113.012 404.626 116.678C404.626 117.419 405.795 117.419 405.795 116.678C405.795 113.012 405.795 109.346 405.795 105.68C405.795 104.939 404.626 104.939 404.626 105.68Z" fill="#161616"/>
<path d="M138.49 85.946C142.065 85.946 144.964 83.0475 144.964 79.472C144.964 75.8966 142.065 72.998 138.49 72.998C134.914 72.998 132.016 75.8966 132.016 79.472C132.016 83.0475 134.914 85.946 138.49 85.946Z" fill="#7C7C7C"/>
<path d="M158.029 155.873C160.484 155.873 162.475 153.882 162.475 151.427C162.475 148.972 160.484 146.981 158.029 146.981C155.573 146.981 153.583 148.972 153.583 151.427C153.583 153.882 155.573 155.873 158.029 155.873Z" fill="#7C7C7C"/>
<path d="M198.706 81.305C199.869 81.305 200.812 80.3621 200.812 79.199C200.812 78.0359 199.869 77.093 198.706 77.093C197.543 77.093 196.6 78.0359 196.6 79.199C196.6 80.3621 197.543 81.305 198.706 81.305Z" fill="#7C7C7C"/>
<path d="M297.298 87.2331C298.935 87.2331 300.262 85.906 300.262 84.2691C300.262 82.6321 298.935 81.3051 297.298 81.3051C295.661 81.3051 294.334 82.6321 294.334 84.2691C294.334 85.906 295.661 87.2331 297.298 87.2331Z" fill="#7C7C7C"/>
<path d="M297.103 50.456C298.611 50.456 299.833 49.2337 299.833 47.726C299.833 46.2183 298.611 44.996 297.103 44.996C295.595 44.996 294.373 46.2183 294.373 47.726C294.373 49.2337 295.595 50.456 297.103 50.456Z" fill="#7C7C7C"/>
<path d="M157.639 135.086C159.319 135.086 160.681 133.724 160.681 132.044C160.681 130.364 159.319 129.002 157.639 129.002C155.959 129.002 154.597 130.364 154.597 132.044C154.597 133.724 155.959 135.086 157.639 135.086Z" fill="#2D2D2D"/>
<path d="M197.809 34.544C199.467 34.544 200.812 33.1995 200.812 31.541C200.812 29.8825 199.467 28.538 197.809 28.538C196.15 28.538 194.806 29.8825 194.806 31.541C194.806 33.1995 196.15 34.544 197.809 34.544Z" fill="#2D2D2D"/>
<path d="M197.809 61.103C199.467 61.103 200.812 59.7585 200.812 58.1C200.812 56.4415 199.467 55.097 197.809 55.097C196.15 55.097 194.806 56.4415 194.806 58.1C194.806 59.7585 196.15 61.103 197.809 61.103Z" fill="#2D2D2D"/>
<path d="M295.816 76.001C296.634 76.001 297.298 75.3375 297.298 74.519C297.298 73.7005 296.634 73.037 295.816 73.037C294.997 73.037 294.334 73.7005 294.334 74.519C294.334 75.3375 294.997 76.001 295.816 76.001Z" fill="#2D2D2D"/>
<path d="M365.821 99.635C369.246 99.635 372.022 96.8587 372.022 93.434C372.022 90.0093 369.246 87.233 365.821 87.233C362.396 87.233 359.62 90.0093 359.62 93.434C359.62 96.8587 362.396 99.635 365.821 99.635Z" fill="#2D2D2D"/>
<path d="M405.874 128.729C407.511 128.729 408.838 127.402 408.838 125.765C408.838 124.128 407.511 122.801 405.874 122.801C404.237 122.801 402.91 124.128 402.91 125.765C402.91 127.402 404.237 128.729 405.874 128.729Z" fill="#2D2D2D"/>
<path d="M365.782 50.456C367.29 50.456 368.512 49.2337 368.512 47.726C368.512 46.2183 367.29 44.996 365.782 44.996C364.274 44.996 363.052 46.2183 363.052 47.726C363.052 49.2337 364.274 50.456 365.782 50.456Z" fill="#2D2D2D"/>
<path d="M365.821 61.649C366.984 61.649 367.927 60.7061 367.927 59.543C367.927 58.3799 366.984 57.437 365.821 57.437C364.658 57.437 363.715 58.3799 363.715 59.543C363.715 60.7061 364.658 61.649 365.821 61.649Z" fill="#7C7C7C"/>
<path d="M405.211 102.014C406.374 102.014 407.317 101.071 407.317 99.908C407.317 98.7449 406.374 97.802 405.211 97.802C404.048 97.802 403.105 98.7449 403.105 99.908C403.105 101.071 404.048 102.014 405.211 102.014Z" fill="#7C7C7C"/>
<path d="M109.435 130.211C107.602 133.097 105.769 135.944 103.936 138.83C102.493 141.092 101.05 143.471 100.543 146.162C99.7239 150.803 102.844 153.923 105.496 157.277C107.017 159.188 108.421 161.372 107.758 163.868C107.173 166.13 105.301 168.08 105.574 170.576C105.691 171.629 106.237 172.448 106.705 173.345C107.485 174.905 108.031 176.582 108.226 178.298C108.577 181.496 107.836 184.694 106.159 187.424C105.769 188.087 106.783 188.672 107.173 188.009C109.747 183.758 110.254 178.415 108.265 173.813C107.563 172.175 106.393 170.849 106.9 168.899C107.251 167.612 107.992 166.481 108.499 165.272C109.24 163.439 109.318 161.606 108.538 159.773C106.783 155.639 101.908 152.948 101.596 148.151C101.401 144.914 103.312 141.95 104.95 139.337C106.783 136.451 108.616 133.565 110.449 130.718C110.839 130.172 109.825 129.587 109.435 130.211Z" fill="#E8E8E8"/>
<path d="M181.468 174.398C178.582 177.323 177.139 181.418 177.607 185.513C177.841 187.658 178.699 189.452 179.713 191.363C181.234 194.249 181.585 196.433 180.415 199.475C179.713 201.269 178.816 203.102 179.05 205.052C179.284 207.275 181 208.445 182.053 210.278C184.276 214.256 179.791 218.429 180.844 222.68C181.039 223.421 182.17 223.109 181.975 222.368C181 218.546 184.666 215.153 183.73 211.292C183.262 209.42 181.741 208.25 180.805 206.651C179.479 204.389 180.727 202.01 181.546 199.787C182.209 198.032 182.677 196.277 182.287 194.405C181.78 192.104 180.22 190.232 179.401 188.048C177.763 183.641 179.011 178.532 182.287 175.217C182.833 174.671 182.014 173.852 181.468 174.398Z" fill="#E8E8E8"/>
<path d="M434.656 182.9C430.756 187.463 426.973 193.352 427.363 199.631C427.558 202.634 428.884 205.052 430.522 207.509C432.433 210.356 434.071 213.047 433.135 216.596C431.887 221.237 427.285 225.878 428.884 230.987C429.859 234.107 432.979 235.823 433.72 239.099C434.578 242.999 432.784 247.094 431.185 250.565C430.873 251.228 431.887 251.852 432.199 251.15C433.525 248.264 434.812 245.261 435.046 242.063C435.28 239.021 434.266 236.603 432.394 234.263C430.171 231.572 429.157 229.271 430.327 225.878C431.224 223.265 432.823 220.925 433.798 218.351C434.734 215.933 434.968 213.437 433.954 210.98C432.901 208.406 430.951 206.417 429.703 203.96C426.193 196.94 430.912 189.062 435.475 183.758C435.982 183.173 435.163 182.354 434.656 182.9Z" fill="#E8E8E8"/>
<path d="M445.615 224.435C443.587 226.346 442.3 228.842 441.949 231.611C441.52 234.926 442.768 237.227 444.094 240.113C445.732 243.662 442.534 246.86 443.392 250.448C443.86 252.398 444.913 253.88 444.874 255.947C444.796 258.092 443.938 260.042 442.456 261.563C441.949 262.109 442.768 262.928 443.275 262.382C445.264 260.354 446.317 257.585 445.966 254.738C445.771 253.1 444.874 251.696 444.523 250.097C444.016 247.952 445.186 246.002 445.615 243.974C446.356 240.542 444.016 238.514 443.275 235.394C442.378 231.689 443.665 227.789 446.434 225.215C447.019 224.747 446.2 223.928 445.615 224.435Z" fill="#E8E8E8"/>
<path d="M337.156 115.664C334.933 119.096 332.476 123.152 333.763 127.403C334.387 129.47 336.103 130.328 337.039 132.122C337.936 133.916 337.078 136.022 336.454 137.738C335.557 140.195 334.309 143.198 336.571 145.304C337.468 146.123 338.56 146.591 338.95 147.878C339.262 148.931 338.989 150.179 338.794 151.193C338.404 153.065 337.858 154.937 338.092 156.848C338.17 157.589 339.34 157.589 339.262 156.848C338.911 153.65 341.251 150.062 339.886 146.981C339.106 145.187 336.688 144.68 336.454 142.652C336.259 141.131 337.078 139.454 337.585 138.05C338.56 135.359 339.262 132.668 337.156 130.328C335.206 128.183 334.192 126.116 334.816 123.152C335.323 120.617 336.805 118.355 338.209 116.21C338.599 115.586 337.585 115.001 337.156 115.664Z" fill="#E8E8E8"/>
<path d="M176.827 74.48C174.526 76.079 174.136 78.926 175.735 81.149C177.178 83.099 174.955 83.996 175.384 85.829C175.54 86.492 176.086 86.882 176.398 87.467C177.178 88.91 176.281 90.431 175.54 91.718C175.15 92.381 176.164 92.966 176.554 92.303C177.256 91.094 178.036 89.69 177.919 88.247C177.88 87.584 177.607 87.155 177.334 86.57C177.139 86.219 176.905 86.102 176.749 85.673C176.554 84.932 176.827 84.776 177.178 84.074C177.685 83.099 177.88 82.28 177.334 81.266C176.827 80.33 176.008 79.784 175.93 78.614C175.852 77.366 176.437 76.157 177.451 75.455C178.036 75.065 177.451 74.051 176.827 74.48Z" fill="#2B2B2B"/>
<path d="M121.018 103.73C120.277 104.549 119.809 105.446 119.731 106.538C119.653 107.786 120.667 109.073 120.121 110.204C119.731 111.023 119.302 111.335 119.38 112.349C119.458 113.402 121.213 116.288 119.614 116.912C118.912 117.185 119.224 118.316 119.926 118.043C121.876 117.302 121.486 115.235 120.94 113.636C120.511 112.388 120.862 111.764 121.408 110.594C121.525 110.321 121.72 110.126 121.759 109.814C121.837 109.19 121.486 108.839 121.252 108.332C120.628 106.967 120.784 105.641 121.798 104.549C122.344 104.003 121.486 103.145 121.018 103.73Z" fill="#2B2B2B"/>
<path d="M419.446 115.859C417.886 115.742 416.755 116.912 416.521 118.433C416.17 120.656 418.003 122.216 418.939 124.01C419.563 125.258 419.329 126.233 418.939 127.442C418.744 128.066 418.51 127.871 418.471 128.573C418.432 129.158 418.666 129.587 419.056 130.016C420.109 131.225 420.967 131.771 420.85 133.565C420.733 135.164 419.992 136.685 419.29 138.05C418.939 138.713 419.953 139.298 420.304 138.635C421.123 137.075 421.942 135.359 422.02 133.565C422.137 131.81 421.435 131.03 420.499 129.704C420.187 129.509 420.07 129.197 420.109 128.768C419.797 128.3 419.875 127.91 420.265 127.559C420.343 127.208 420.538 126.935 420.616 126.545C420.772 125.726 420.616 124.907 420.304 124.088C419.992 123.23 419.446 122.528 418.939 121.787C418.51 121.163 418.003 120.461 417.808 119.72C417.496 118.589 417.808 116.873 419.485 116.99C420.187 117.107 420.187 115.937 419.446 115.859Z" fill="#2B2B2B"/>
</svg>
