<svg width="219" height="32" viewBox="0 0 219 32" fill="none" xmlns="http://www.w3.org/2000/svg">
<path d="M15.6876 0.312419C15.8876 0.11238 16.1589 0 16.4418 0L30.7124 0C31.1876 0 31.4255 0.574476 31.0895 0.910457L0.910456 31.0895C0.574474 31.4255 0 31.1876 0 30.7124V16L15.6876 0.312419Z" fill="url(#paint0_linear)"/>
<path d="M0 16V1.28758C0 0.812431 0.574476 0.574476 0.910457 0.910457L31.0895 31.0895C31.4255 31.4255 31.1876 32 30.7124 32H16L0 16Z" fill="url(#paint1_linear)"/>
<path d="M48.112 18.4L45.856 20.752V25H41.992V8.2H45.856V16.048L53.296 8.2H57.616L50.656 15.688L58.024 25H53.488L48.112 18.4ZM66.5545 8.2H70.4425V25H66.5545V8.2ZM94.2344 21.88V25H81.2264V8.2H93.9224V11.32H85.0904V14.968H92.8904V17.992H85.0904V21.88H94.2344ZM119.533 8.2V25H116.341L107.965 14.8V25H104.125V8.2H107.341L115.693 18.4V8.2H119.533ZM133.785 11.368H128.409V8.2H143.049V11.368H137.673V25H133.785V11.368ZM162.641 25L159.401 20.32H159.209H155.825V25H151.937V8.2H159.209C160.697 8.2 161.985 8.448 163.073 8.944C164.177 9.44 165.025 10.144 165.617 11.056C166.209 11.968 166.505 13.048 166.505 14.296C166.505 15.544 166.201 16.624 165.593 17.536C165.001 18.432 164.153 19.12 163.049 19.6L166.817 25H162.641ZM162.569 14.296C162.569 13.352 162.265 12.632 161.657 12.136C161.049 11.624 160.161 11.368 158.993 11.368H155.825V17.224H158.993C160.161 17.224 161.049 16.968 161.657 16.456C162.265 15.944 162.569 15.224 162.569 14.296ZM187.447 21.4H179.647L178.159 25H174.175L181.663 8.2H185.503L193.015 25H188.935L187.447 21.4ZM186.223 18.448L183.559 12.016L180.895 18.448H186.223ZM216.963 8.2V25H213.771L205.395 14.8V25H201.555V8.2H204.771L213.122 18.4V8.2H216.963Z" fill="#191919"/>
<defs>
<linearGradient id="paint0_linear" x1="32" y1="0" x2="0" y2="32" gradientUnits="userSpaceOnUse">
<stop stop-color="#E040FB"/>
<stop offset="1" stop-color="#18FFFF"/>
</linearGradient>
<linearGradient id="paint1_linear" x1="0" y1="0" x2="32" y2="32" gradientUnits="userSpaceOnUse">
<stop stop-color="#FFFF00"/>
<stop offset="1" stop-color="#18FFFF"/>
</linearGradient>
</defs>
</svg>
