<svg width="406" height="286" viewBox="0 0 406 286" fill="none" xmlns="http://www.w3.org/2000/svg">
<path d="M404.413 241.226C340.882 245.243 273.802 247.7 203.446 248.051C132.583 248.402 64.9959 246.569 1.03595 243.176C7.31495 232.139 13.6329 221.141 19.9899 210.182C25.0989 201.329 30.286 192.515 35.4729 183.74C90.4629 186.86 149.899 188.108 213.196 186.548C272.827 185.066 328.909 181.244 380.974 175.901C385.771 182.648 391.309 191.774 395.833 203.279C401.683 218.216 403.711 231.593 404.413 241.226Z" fill="white" stroke="#161616" stroke-width="1.16938" stroke-miterlimit="10"/>
<path d="M30.4809 235.22C52.6329 237.599 74.9409 238.34 97.2489 237.443C97.9899 237.404 97.9899 236.234 97.2489 236.273C74.9799 237.17 52.6719 236.429 30.4809 234.05C29.7399 233.972 29.7399 235.142 30.4809 235.22Z" fill="#161616"/>
<path d="M69.9099 229.603C80.7129 230.032 91.5549 229.759 102.358 229.759C113.317 229.72 124.237 229.72 135.196 229.681C135.937 229.681 135.937 228.512 135.196 228.512C124.237 228.551 113.317 228.551 102.358 228.59C91.5549 228.629 80.7129 228.863 69.9099 228.434C69.1689 228.395 69.1689 229.564 69.9099 229.603Z" fill="#161616"/>
<path d="M214.093 226.757C247.126 224.651 280.12 222.155 313.114 219.269C313.855 219.191 313.855 218.021 313.114 218.099C280.159 220.985 247.126 223.481 214.093 225.587C213.352 225.626 213.352 226.796 214.093 226.757Z" fill="#161616"/>
<path d="M300.205 206.711C325.789 205.775 351.334 204.176 376.84 201.797C377.581 201.719 377.581 200.549 376.84 200.627C351.334 202.967 325.789 204.605 300.205 205.541C299.464 205.541 299.464 206.711 300.205 206.711Z" fill="#161616"/>
<path d="M322.591 231.749C344.08 230.813 365.569 229.877 387.058 228.902C387.799 228.863 387.799 227.693 387.058 227.732C365.569 228.668 344.08 229.604 322.591 230.579C321.85 230.618 321.85 231.788 322.591 231.749Z" fill="#161616"/>
<path d="M39.0609 182.336C40.0359 184.169 41.0109 186.002 42.0249 187.874C42.9219 188.459 45.9639 190.253 49.7859 189.551C51.3849 189.278 52.6329 188.654 53.4519 188.147C54.5439 186.236 55.6359 184.325 56.7279 182.414C54.5829 181.751 51.4239 180.971 47.5239 181.01C43.9749 181.049 41.0889 181.712 39.0609 182.336Z" fill="white" stroke="#161616" stroke-width="1.16938" stroke-miterlimit="10"/>
<path d="M39.7239 182.999C43.2339 185.183 48.2649 184.676 52.2039 184.442C52.9449 184.403 52.9449 183.233 52.2039 183.272C48.4989 183.467 43.6239 184.052 40.3089 181.985C39.6849 181.595 39.0999 182.609 39.7239 182.999Z" fill="#161616"/>
<path d="M30.637 156.713C33.952 165.293 37.267 173.873 40.543 182.453C40.816 183.155 41.947 182.843 41.674 182.141C38.359 173.561 35.044 164.981 31.768 156.401C31.495 155.699 30.364 155.972 30.637 156.713Z" fill="#161616"/>
<path d="M35.6289 156.908C37.3449 165.683 39.3729 174.419 41.6739 183.077C41.8689 183.818 42.9999 183.506 42.8049 182.765C40.4649 174.107 38.4369 165.371 36.7599 156.596C36.6039 155.855 35.4729 156.167 35.6289 156.908Z" fill="#161616"/>
<path d="M30.8709 152.345C30.2859 150.473 31.8459 148.718 31.4169 146.768C30.9099 144.701 28.8819 143.843 29.1159 141.464C29.2719 139.826 30.0909 138.266 29.8179 136.589C29.6229 135.536 28.9599 134.912 28.4919 133.976C27.9459 132.806 28.1799 131.714 28.4919 130.505C28.8039 129.14 29.3109 127.658 28.7649 126.254C28.4919 125.513 27.9459 125.162 27.4779 124.577C26.3859 123.29 26.5419 121.964 26.8149 120.404C27.6729 115.568 27.7119 110.927 26.4639 106.13C26.2689 105.389 25.1379 105.701 25.3329 106.442C26.0349 109.172 26.4249 111.941 26.3469 114.749C26.2689 117.128 25.6449 119.351 25.4499 121.691C25.2939 123.602 25.9179 124.421 27.0879 125.786C28.6089 127.619 27.3219 129.725 27.0489 131.792C26.9709 132.455 26.9709 133.157 27.1659 133.82C27.4779 134.912 28.4529 135.653 28.6479 136.823C28.9599 138.695 27.7899 140.528 27.9069 142.4C28.0629 144.428 30.1689 145.481 30.3249 147.431C30.4809 149.264 29.1549 150.746 29.7399 152.657C29.9739 153.359 31.1049 153.047 30.8709 152.345Z" fill="#E8E8E8"/>
<path d="M36.5259 151.448C35.317 150.317 36.838 149.147 36.409 147.821C36.175 147.08 35.395 146.534 35.356 145.715C35.317 144.974 35.8239 144.155 35.9409 143.414C36.1359 142.01 35.395 141.347 35.044 140.06C34.576 138.305 35.6289 136.355 35.9409 134.639C36.1749 133.313 36.058 132.182 35.59 130.934C35.2 129.92 34.81 129.062 34.888 127.97C34.966 127.073 35.356 126.254 35.551 125.396C36.3309 122.276 33.562 118.961 34.888 116.075C35.2 115.412 34.186 114.788 33.874 115.49C32.314 118.805 35.1999 121.964 34.3419 125.396C33.913 127.112 33.406 128.36 33.991 130.115C34.342 131.09 34.849 132.026 34.888 133.118C34.966 134.21 34.576 135.263 34.303 136.277C33.952 137.603 33.562 139.007 33.913 140.372C34.225 141.503 34.966 142.361 34.693 143.609C34.537 144.233 34.264 144.818 34.225 145.481C34.186 146.105 34.264 146.573 34.576 147.119C34.732 147.392 35.2 147.821 35.239 148.016C35.317 148.328 35.044 148.952 34.966 149.225C34.693 150.434 34.7709 151.331 35.7069 152.228C36.2529 152.774 37.0719 151.955 36.5259 151.448Z" fill="#E8E8E8"/>
<path d="M238.741 228.98C231.058 230.15 224.584 230.423 220.099 230.423C217.642 266.186 217.993 284.321 221.191 284.828C223.882 285.257 228.601 273.167 235.309 248.558C244.552 246.257 253.834 243.956 263.077 241.655C264.013 232.607 261.907 229.097 259.801 227.498C255.901 224.573 250.441 227.147 238.741 228.98Z" fill="#161616" stroke="#161616" stroke-width="1.16938" stroke-miterlimit="10"/>
<path d="M201.028 165.605C194.554 171.494 196.777 187.484 206.41 204.215C208.672 203.942 212.221 203.708 216.472 204.059C218.227 204.215 223.726 204.761 237.766 209.87C240.691 210.962 244.747 212.483 249.583 214.55C245.8 215.564 242.017 216.578 238.195 217.592C238.624 222.155 239.404 227.342 240.808 232.88C243.382 243.137 247.204 251.522 250.714 257.801C259.489 255.227 266.665 252.692 271.852 250.82C284.293 246.257 290.884 242.981 297.202 238.574C303.949 233.855 307.498 229.877 308.59 224.885C309.214 221.999 308.863 219.503 308.746 218.606C307.966 213.77 305.275 210.494 302.467 207.374C296.305 200.471 293.224 197.039 288.193 193.217C276.688 184.52 266.197 179.957 254.536 175.004C245.527 171.182 239.521 168.647 230.785 166.541C216.823 163.304 206.332 160.769 201.028 165.605Z" fill="#424242"/>
<path opacity="0.11" d="M204.421 179.606C208.048 180.425 213.352 181.79 219.631 183.857C224.272 185.378 233.047 188.459 253.21 198.638C259.996 202.07 268.927 206.711 279.262 212.522C266.197 218.411 253.093 224.3 240.028 230.189C239.482 227.888 239.014 225.236 238.78 222.311C238.663 220.946 238.624 219.62 238.624 218.411C242.134 217.124 245.644 215.876 249.154 214.589C239.677 210.338 232.267 207.842 227.431 206.399C224.506 205.502 221.581 204.722 217.837 204.293C213.196 203.747 209.296 203.942 206.527 204.254C205.825 195.986 205.123 187.796 204.421 179.606Z" fill="#3D3D3D"/>
<path opacity="0.11" d="M206.371 203.513C212.806 202.538 222.868 201.797 234.763 204.332C244.942 206.477 252.82 210.26 258.046 213.263C251.806 216.968 245.605 220.673 239.365 224.378C239.053 222.389 238.741 220.439 238.429 218.45C241.978 217.124 245.527 215.798 249.037 214.472C241.51 211.196 235.153 208.934 230.434 207.452C225.364 205.814 222.907 205.268 221.464 204.956C215.263 203.669 210.037 203.474 206.371 203.513Z" fill="#3D3D3D"/>
<path d="M155.866 241.577C161.677 243.605 167.488 245.633 173.26 247.661C174.469 272.738 176.224 285.335 178.486 285.413C181.255 285.53 184.804 267.434 189.172 231.086C179.929 228.863 170.725 226.601 161.482 224.378C159.649 230.111 157.777 235.844 155.866 241.577Z" fill="#161616" stroke="#161616" stroke-width="1.16938" stroke-miterlimit="10"/>
<path d="M206.488 204.098C206.137 192.905 204.85 183.623 203.602 176.837C200.989 162.524 198.727 160.262 196.738 159.326C192.409 157.337 188.002 161.159 177.004 166.19C167.995 170.324 169.165 168.569 153.721 174.38C142.411 178.631 128.761 184.481 114.253 192.983C111.133 194.816 103.801 199.223 96.7419 207.179C90.1119 214.628 89.6439 218.567 89.6439 220.478C89.6439 222.428 90.1119 226.796 96.5079 233.348C104.035 241.031 112.537 244.346 137.068 252.185C143.815 254.33 149.977 256.28 155.476 257.957C158.44 252.302 160.702 247.388 162.34 243.566C166.942 232.802 167.917 227.732 168.307 225.158C168.736 222.311 168.931 219.932 168.97 218.294C164.992 217.241 160.975 216.227 156.997 215.174C161.521 212.6 167.137 209.948 173.845 207.842C187.027 203.747 198.61 203.513 206.488 204.098Z" fill="#424242"/>
<path opacity="0.13" d="M198.337 182.804C181.567 190.955 170.53 196.688 165.577 199.067C152.551 205.229 139.837 210.884 127.474 216.11C136.951 214.784 146.233 219.23 150.913 227.303C156.022 236.078 154.618 247.466 147.403 255.071C150.055 256.007 152.668 256.943 155.32 257.918C157.66 253.511 159.415 249.806 160.663 247.115C163.744 240.368 165.733 236 167.254 230.033C168.424 225.509 168.892 221.726 169.087 219.23C164.953 217.865 160.819 216.461 156.685 215.096C160.429 213.068 164.719 211.04 169.555 209.285C183.946 204.059 197.05 203.396 206.41 203.825C206.332 201.251 206.254 198.638 206.059 195.908C205.708 190.253 205.123 184.91 204.421 179.918C203.017 180.542 200.911 181.595 198.337 182.804Z" fill="#3D3D3D"/>
<path opacity="0.15" d="M205.162 203.435C205.162 203.084 195.373 201.992 182.971 203.747C169.243 205.697 158.518 210.182 151.537 213.77C155.086 216.422 158.635 219.113 162.184 221.765C160.273 233.426 158.401 245.087 156.49 256.748C160.468 250.391 165.031 241.343 167.449 229.799C168.307 225.704 168.775 221.882 168.97 218.372C167.644 217.982 166.279 217.592 164.875 217.202C162.184 216.461 159.532 215.759 156.958 215.174C159.259 213.887 162.496 212.21 166.591 210.572C186.988 202.187 205.162 203.903 205.162 203.435Z" fill="#3D3D3D"/>
<path d="M234.957 74.735C236.946 74.072 239.949 77.153 241.743 78.947C244.629 81.872 246.072 84.836 246.501 85.733C251.805 96.731 250.869 92.363 255.354 102.581C260.853 115.178 264.597 127.073 264.597 127.073C266.43 132.884 267.561 137.213 271.11 142.556C275.127 148.562 278.442 150.161 279.807 150.707C284.331 152.579 288.621 151.76 290.532 151.253C292.599 149.225 294.198 147.47 295.29 146.222C297.513 143.687 298.449 142.322 300.204 142.127C300.594 142.088 302.388 141.893 303.324 142.946C303.753 143.414 303.831 143.921 304.26 144.038C304.806 144.194 305.352 143.57 306.015 142.946C306.288 142.673 308.082 140.996 309.954 140.216C310.929 139.787 312.801 139.241 313.347 139.943C313.893 140.645 312.684 142.127 313.23 142.673C313.776 143.219 315.102 141.971 316.506 142.556C317.286 142.907 317.949 143.765 317.988 144.584C318.066 145.598 317.208 145.832 317.052 147.158C316.896 148.25 317.403 148.445 317.325 149.342C317.169 150.707 315.921 150.902 314.205 152.891C313.23 154.022 313.503 154.1 311.748 156.713C311.085 157.688 310.227 158.975 309.564 159.716C306.99 162.602 302.622 162.836 300.321 162.992C295.875 163.226 292.365 161.9 290.376 160.964C289.05 161.9 287.022 163.07 284.409 163.967C277.662 166.19 271.734 164.63 269.316 163.967C259.683 161.276 254.028 153.983 250.284 148.991C244.707 141.581 242.679 135.146 239.013 123.446C237.882 119.897 234.489 108.626 233.163 93.533C232.617 86.669 231.72 75.827 234.957 74.735Z" fill="white"/>
<path d="M236.05 76.1388C239.482 77.2698 241.861 80.0388 243.85 82.9638C245.917 85.9668 247.75 89.1258 249.505 92.3628C253.054 98.9928 256.018 105.896 258.787 112.877C261.595 119.897 264.169 126.995 266.782 134.054C268.888 139.67 271.423 145.637 276.298 149.381C280.822 152.852 287.257 154.295 292.327 151.136C292.951 150.746 292.366 149.732 291.742 150.122C286.36 153.476 279.418 151.136 275.245 146.885C270.487 141.971 268.459 135.146 266.158 128.906C261.283 115.568 256.291 101.996 249.31 89.5548C246.268 84.1338 242.68 77.1138 236.362 75.0078C235.66 74.7738 235.348 75.9048 236.05 76.1388Z" fill="#161616"/>
<path d="M235.66 113.93C239.131 125.942 242.056 138.5 249.193 148.952C255.082 157.61 263.818 164.513 274.543 165.371C280.354 165.839 286.243 164.435 290.923 160.925C291.508 160.496 290.923 159.443 290.338 159.911C284.878 164.045 277.819 165.098 271.189 163.733C264.637 162.368 258.982 158.585 254.497 153.749C244.318 142.712 240.925 127.658 236.869 113.657C236.596 112.916 235.465 113.228 235.66 113.93Z" fill="#161616"/>
<path d="M292.444 151.292C294.082 148.991 295.603 146.339 297.592 144.35C298.762 143.18 300.673 142.01 302.35 142.946C303.793 143.765 303.91 145.637 303.052 146.885C302.623 147.509 303.637 148.094 304.066 147.47C305.899 144.857 303.988 141.347 300.79 141.503C298.879 141.62 297.319 142.829 296.149 144.272C294.472 146.3 293.029 148.562 291.469 150.707C291.001 151.292 292.015 151.877 292.444 151.292Z" fill="#161616"/>
<path d="M297.865 146.183C297.007 147.899 298.06 149.888 299.971 150.2C302.272 150.551 303.949 148.601 304.339 146.534C304.495 145.793 303.364 145.481 303.208 146.222C302.974 147.47 302.311 148.757 300.946 149.03C299.659 149.303 298.216 148.172 298.879 146.807C299.191 146.105 298.177 145.52 297.865 146.183Z" fill="#161616"/>
<path d="M290.143 161.276C294.628 162.173 298.879 164.24 303.52 163.265C307.264 162.485 310.462 160.184 312.529 157.025C312.958 156.401 311.944 155.816 311.515 156.44C309.487 159.521 306.289 161.666 302.623 162.251C298.411 162.914 294.472 160.964 290.416 160.145C289.714 160.028 289.402 161.159 290.143 161.276Z" fill="#161616"/>
<path d="M301.18 149.03C299.932 149.771 300.088 151.487 301.141 152.384C302.038 153.125 303.247 153.008 304.339 153.008C306.211 152.969 307.771 153.281 309.409 154.217C310.072 154.568 310.657 153.593 309.994 153.203C308.785 152.501 307.498 152.033 306.094 151.877C305.431 151.799 304.768 151.838 304.066 151.838C303.637 151.838 303.208 151.877 302.818 151.799C302.35 151.682 300.829 150.629 301.765 150.083C302.389 149.654 301.804 148.64 301.18 149.03Z" fill="#161616"/>
<path d="M301.96 149.537C304.885 147.86 308.473 148.211 310.969 150.512C311.515 151.019 312.334 150.2 311.788 149.693C308.902 147.041 304.768 146.573 301.375 148.523C300.712 148.913 301.297 149.927 301.96 149.537Z" fill="#161616"/>
<path d="M304.495 144.779C305.782 143.843 307.03 142.946 308.317 142.01C308.863 141.62 309.37 141.23 309.955 140.879C310.345 140.645 310.735 140.411 311.164 140.255C312.997 139.631 313.426 140.528 312.412 142.946C311.71 143.18 312.022 144.311 312.724 144.077C314.83 143.336 315.571 140.489 313.387 139.28C312.178 138.578 310.735 139.085 309.643 139.709C307.654 140.84 305.821 142.439 303.949 143.765C303.286 144.233 303.871 145.247 304.495 144.779Z" fill="#161616"/>
<path d="M306.991 147.899C308.551 146.924 310.111 145.91 311.671 144.935C312.373 144.506 313.075 143.999 313.855 143.648C314.44 143.336 315.064 143.219 315.727 143.219C317.092 143.219 317.599 144.038 317.248 145.637C316.78 146.222 317.599 147.041 318.067 146.456C319.549 144.584 318.223 142.283 315.961 142.088C314.479 141.932 313.153 142.673 311.944 143.414C310.072 144.545 308.239 145.754 306.406 146.924C305.743 147.275 306.328 148.289 306.991 147.899Z" fill="#161616"/>
<path d="M311.554 149.732C312.607 149.147 313.66 148.601 314.713 148.094C315.064 147.899 316.234 147.197 316.585 147.275C317.56 147.47 316.897 148.445 316.663 148.835C316.273 149.459 317.287 150.083 317.677 149.42C318.301 148.406 318.847 146.417 317.17 146.105C316.273 145.91 315.298 146.534 314.518 146.924C313.309 147.509 312.1 148.094 310.93 148.757C310.306 149.108 310.93 150.122 311.554 149.732Z" fill="#161616"/>
<path d="M309.916 149.459C312.724 151.019 313.27 154.49 311.047 156.83C310.54 157.376 311.359 158.195 311.866 157.649C314.596 154.802 313.972 150.356 310.501 148.445C309.877 148.094 309.253 149.108 309.916 149.459Z" fill="#161616"/>
<path d="M317.092 149.03C315.844 150.629 314.401 152.033 312.802 153.203C312.217 153.632 312.763 154.646 313.387 154.217C315.103 152.969 316.624 151.526 317.95 149.849C318.379 149.264 317.56 148.445 317.092 149.03Z" fill="#161616"/>
<path d="M298.138 153.593C300.595 153.788 302.896 154.568 304.963 155.933C305.587 156.362 306.172 155.348 305.548 154.919C303.286 153.476 300.829 152.657 298.138 152.423C297.397 152.384 297.397 153.554 298.138 153.593Z" fill="#161616"/>
<path opacity="0.09" d="M231.019 84.173C231.721 89.165 232.852 96.185 234.529 104.609C235.621 110.069 236.401 114.086 237.844 119.429C240.028 127.541 241.822 134.366 246.034 142.283C248.803 147.47 250.675 151.019 254.575 154.841C257.344 157.532 264.598 164.63 275.518 164.786C282.187 164.864 287.452 162.329 290.533 160.418C292.366 161.432 295.525 162.797 299.62 162.875C301.531 162.914 305.119 162.953 308.512 160.613C309.682 159.794 312.802 157.688 313.036 154.139C313.075 153.593 313.231 150.629 311.125 149.069C308.785 147.353 304.963 148.367 304.651 149.576C304.378 150.707 307.186 151.643 307.108 153.242C306.991 155.27 302.389 156.518 301.531 156.752C274.075 164.162 259.294 151.877 259.294 151.877C254.809 148.133 252.43 144.077 246.892 130.232C242.329 118.844 236.596 103.283 231.019 84.173Z" fill="#3D3D3D"/>
<path d="M119.596 158.974C121.39 160.3 126.148 163.381 132.661 163.342C138.745 163.303 143.035 160.534 145.453 158.974C149.47 156.4 151.771 153.553 153.877 150.823C160.429 142.516 163.042 133.858 164.914 127.579C166.591 121.963 165.928 122.275 167.527 117.4C170.53 108.274 173.104 106.207 175.678 99.6945C179.929 88.9305 180.202 76.0995 176.848 74.6955C175.288 74.0715 172.987 75.9045 168.424 79.6485C167.059 80.7795 164.641 82.7685 162.106 85.8495C160.078 88.3455 156.529 93.2595 152.59 104.998C149.392 114.592 150.094 116.152 146.311 126.76C143.971 133.351 142.489 136.042 140.695 138.499C138.667 141.229 135.313 145.675 129.229 148.015C124.588 149.809 120.415 149.575 118.114 149.263C117.802 147.703 116.749 143.413 113.122 141.307C112.225 140.761 110.041 139.513 108.481 140.449C107.584 140.995 107.272 142.009 107.155 142.555C105.439 140.137 103.567 139.084 102.514 138.616C101.5 138.187 99.4327 137.251 98.5747 138.109C97.7947 138.889 98.4967 140.683 98.5747 140.917C97.4827 140.332 96.2347 140.41 95.3377 141.073C94.6747 141.58 93.9337 142.594 94.2067 143.686C94.4017 144.427 94.9867 144.895 95.1817 145.012C94.9477 145.675 94.7527 146.689 95.1037 147.742C95.2987 148.288 95.5327 148.639 96.9367 150.199C98.7307 152.227 98.7697 152.149 99.1207 152.656C100.096 154.099 99.9007 154.879 100.525 156.166C101.617 158.545 103.957 159.676 104.737 160.027C107.233 161.236 109.534 160.924 113.317 160.378C115.735 160.105 117.841 159.559 119.596 158.974Z" fill="white"/>
<path d="M176.731 73.643C170.764 76.646 165.382 80.78 161.209 86.045C157.036 91.31 154.15 97.394 151.966 103.712C149.782 110.108 148.222 116.699 146.545 123.212C144.946 129.53 142.255 136.082 138.043 141.113C133.129 147.002 125.485 149.264 118.036 148.406C117.295 148.328 117.295 149.498 118.036 149.576C123.925 150.239 130.048 149.108 134.923 145.637C140.071 141.971 143.308 135.848 145.609 130.076C148.066 123.953 149.158 117.284 150.952 110.966C152.863 104.141 155.203 97.355 158.947 91.31C163.393 84.095 169.75 78.479 177.316 74.696C178.018 74.306 177.394 73.292 176.731 73.643Z" fill="#161616"/>
<path d="M168.346 111.941C164.797 125.435 161.911 139.982 153.019 151.175C149.158 156.011 144.127 160.145 138.043 161.783C131.725 163.499 124.9 162.524 119.791 158.312C119.206 157.844 118.387 158.663 118.972 159.131C126.733 165.527 137.809 164.864 145.921 159.404C154.813 153.437 160.078 143.375 163.51 133.508C165.928 126.566 167.605 119.351 169.477 112.253C169.672 111.512 168.541 111.2 168.346 111.941Z" fill="#161616"/>
<path d="M118.66 148.991C117.295 146.885 116.008 144.662 114.487 142.673C113.434 141.269 112.03 139.943 110.158 139.787C106.921 139.592 105.517 143.297 107.077 145.754C107.467 146.378 108.481 145.793 108.091 145.169C107.35 143.999 107.389 142.049 108.715 141.23C110.587 140.06 112.498 141.971 113.512 143.297C115.033 145.286 116.281 147.47 117.646 149.576C118.036 150.2 119.05 149.615 118.66 148.991Z" fill="#161616"/>
<path d="M111.796 145.091C112.42 146.417 111.133 147.743 109.768 147.275C108.637 146.885 108.13 145.598 107.935 144.506C107.818 143.765 106.687 144.077 106.804 144.818C107.155 146.768 108.559 148.796 110.782 148.523C112.693 148.289 113.551 146.144 112.81 144.506C112.498 143.804 111.484 144.389 111.796 145.091Z" fill="#161616"/>
<path d="M119.479 158.468C115.891 159.248 112.381 161.159 108.637 160.574C105.088 160.028 102.124 157.766 100.33 154.763C99.94 154.1 98.926 154.724 99.316 155.348C101.149 158.429 104.035 160.769 107.584 161.588C111.874 162.563 115.696 160.496 119.791 159.599C120.532 159.443 120.22 158.312 119.479 158.468Z" fill="#161616"/>
<path d="M109.183 148.328C109.456 148.523 109.495 148.913 109.378 149.186C109.144 149.966 108.286 150.044 107.584 150.122C106.843 150.161 106.102 150.044 105.322 150.122C103.996 150.278 102.787 150.746 101.656 151.448C101.032 151.838 101.617 152.852 102.241 152.462C103.684 151.565 105.127 151.214 106.843 151.253C107.857 151.292 108.91 151.37 109.729 150.668C110.782 149.81 110.899 148.055 109.729 147.314C109.144 146.924 108.559 147.938 109.183 148.328Z" fill="#161616"/>
<path d="M109.612 146.846C106.531 144.857 102.631 145.403 100.057 148.016C99.511 148.562 100.369 149.381 100.876 148.835C103.099 146.612 106.336 146.144 109.027 147.86C109.651 148.25 110.236 147.236 109.612 146.846Z" fill="#161616"/>
<path d="M107.428 142.166C105.829 140.879 104.269 139.514 102.592 138.344C101.578 137.642 100.291 136.94 99.0429 137.408C96.5859 138.305 97.0929 141.581 99.2379 142.4C99.9399 142.673 100.252 141.542 99.5499 141.269C98.1069 139.553 98.2239 138.773 99.9009 138.929C100.525 138.617 101.071 138.656 101.539 139.046C102.202 139.358 102.826 140.021 103.411 140.45C104.464 141.308 105.556 142.166 106.609 143.024C107.155 143.453 108.013 142.634 107.428 142.166Z" fill="#161616"/>
<path d="M105.01 145.208C103.333 144.038 101.656 142.829 99.9789 141.698C98.8869 140.957 97.6779 140.255 96.3519 140.372C94.2459 140.567 92.9589 142.868 94.2459 144.662C94.6749 145.247 95.6889 144.662 95.2599 144.077C94.4019 142.517 95.1039 141.698 97.2879 141.62C97.7949 141.776 98.2629 141.971 98.6919 142.244C99.2379 142.556 99.7449 142.946 100.252 143.297C101.656 144.272 103.06 145.247 104.464 146.222C105.049 146.651 105.634 145.637 105.01 145.208Z" fill="#161616"/>
<path d="M100.837 147.041C99.7838 146.378 98.6918 145.754 97.5608 145.208C96.8198 144.818 95.8058 144.116 94.9088 144.428C93.5048 144.935 94.0508 146.807 94.5968 147.743C94.9478 148.406 95.9618 147.821 95.6108 147.158C95.4938 146.924 95.0648 146.222 95.1818 145.949C95.3378 145.559 95.9618 145.793 96.2348 145.871C96.5468 145.949 96.8588 146.183 97.1708 146.339C98.2238 146.885 99.2378 147.47 100.252 148.094C100.876 148.445 101.5 147.431 100.837 147.041Z" fill="#161616"/>
<path d="M101.227 146.768C97.9509 148.796 97.5219 153.125 99.9789 155.972C100.486 156.557 101.305 155.699 100.798 155.153C98.8479 152.891 99.1989 149.381 101.812 147.782C102.436 147.392 101.851 146.378 101.227 146.768Z" fill="#161616"/>
<path d="M94.3627 148.055C95.5327 149.693 96.8977 151.175 98.4967 152.462C99.0817 152.93 99.9007 152.111 99.3157 151.643C97.7947 150.434 96.5077 149.069 95.3767 147.47C94.9087 146.846 93.8947 147.431 94.3627 148.055Z" fill="#161616"/>
<path d="M112.498 150.746C110.041 150.98 107.74 151.799 105.712 153.242C105.088 153.671 105.673 154.685 106.297 154.256C108.169 152.93 110.197 152.111 112.498 151.916C113.278 151.838 113.278 150.668 112.498 150.746Z" fill="#161616"/>
<path opacity="0.17" d="M174.781 89.165C169.906 101.021 166.162 110.576 163.783 116.816C158.206 131.324 156.646 136.394 151.381 143.063C146.896 148.718 141.592 155.777 132.622 157.142C127.006 158 122.248 156.284 119.479 155.036C118.777 155.582 113.434 159.404 108.247 157.376C105.361 156.245 102.514 153.32 103.099 151.526C103.684 149.693 107.584 149.81 107.545 148.952C107.506 148.25 104.815 147.275 102.397 148.016C102.046 148.133 99.6669 148.913 98.8869 151.058C97.8729 153.905 100.525 156.83 101.227 157.61C104.815 161.588 110.314 161.393 111.289 161.354C115.228 161.237 118.114 159.482 119.479 158.546C121.234 160.028 124.315 162.212 128.605 162.992C136.522 164.474 142.918 160.028 146.428 157.844C156.451 151.487 160.234 141.347 163.315 133.703C164.797 129.998 165.46 127.58 169.087 112.799C171.349 103.439 173.299 95.405 174.781 89.165Z" fill="#3D3D3D"/>
<path opacity="0.17" d="M96.0395 141.191C97.3655 140.957 99.0815 144.467 100.251 147.275C99.6665 150.278 98.9255 150.941 98.3795 151.019C96.8195 151.292 94.1675 147.47 94.6355 143.999C94.6745 143.726 94.9865 141.386 96.0395 141.191Z" fill="#3D3D3D"/>
<path d="M176.302 73.916C168.931 82.379 168.775 92.831 168.736 111.161C168.697 133.352 172.675 152.033 176.926 165.956C183.322 167.867 192.604 169.895 203.875 169.895C214.99 169.895 224.155 167.867 230.512 165.956C231.955 159.989 233.866 151.214 235.348 140.528C240.457 104.297 243.811 80.468 230.512 68.768C217.096 56.99 188.899 59.447 176.302 73.916Z" fill="white" stroke="#161616" stroke-width="1.16938" stroke-miterlimit="10"/>
<path opacity="0.1" d="M212.845 62.0206C214.522 65.4526 216.745 70.7566 218.149 77.5036C219.436 83.6656 221.425 97.3546 210.154 131.441C206.956 141.152 202.12 154.178 194.905 169.154C197.986 169.466 201.301 169.661 204.811 169.622C214.834 169.583 223.531 167.945 230.434 165.995C233.398 151.487 235.504 139.124 236.947 129.725C238.741 118.181 239.989 108.431 239.599 96.1066C239.131 80.5066 236.479 75.9826 234.997 73.8766C228.64 64.5946 217.174 62.5666 212.845 62.0206Z" fill="#3D3D3D"/>
<path opacity="0.13" d="M238.975 85.226C237.22 90.53 234.685 98.72 232.189 108.938C229.069 121.691 228.601 127.034 226.885 133.859C224.584 142.751 219.787 155.309 208.516 169.661C212.221 169.778 217.174 169.505 222.79 167.984C225.754 167.165 228.367 166.112 230.512 165.098C232.501 154.256 234.256 144.077 235.816 134.639C238.585 118.103 239.56 111.278 239.677 102.23C239.794 95.093 239.365 89.243 238.975 85.226Z" fill="#3D3D3D"/>
<path d="M195.529 52.817C194.242 54.572 194.866 56.171 194.593 62.723C194.398 67.013 193.969 70.445 193.657 72.629C194.983 73.565 198.727 75.944 204.031 75.944C210.271 75.944 214.444 72.668 215.575 71.693C215.068 70.289 214.444 68.183 213.937 65.57C212.494 58.121 213.976 55.82 212.299 53.285C209.296 48.8 198.61 48.605 195.529 52.817Z" fill="white" stroke="#161616" stroke-width="1.16938" stroke-miterlimit="10"/>
<path d="M179.734 31.796C179.578 37.334 180.826 41.468 181.84 44.783C183.361 49.658 185.038 55.118 189.874 60.11C194.086 64.478 199 66.74 202.861 67.91C205.825 66.701 210.7 64.244 215.146 59.408C219.982 54.143 221.815 48.8 223.18 44.783C224.35 41.312 226.339 35.033 225.52 26.843C224.935 21.11 224.311 14.909 219.397 10.112C212.143 3.05302 201.535 4.88602 200.053 5.15902C189.757 7.07002 184.57 15.221 183.322 17.444C179.968 23.138 179.812 28.715 179.734 31.796Z" fill="white" stroke="#161616" stroke-width="1.16938" stroke-miterlimit="10"/>
<path d="M200.209 36.047C199.975 41.039 200.443 45.992 201.652 50.828C201.769 51.218 202.354 51.413 202.627 51.101C203.524 50.048 204.109 48.917 204.382 47.552C204.538 46.811 203.407 46.499 203.251 47.24C203.017 48.449 202.588 49.346 201.808 50.282C202.12 50.36 202.471 50.438 202.783 50.555C201.613 45.797 201.184 40.961 201.379 36.086C201.379 35.306 200.209 35.306 200.209 36.047Z" fill="#161616"/>
<path d="M208.399 37.763C211.168 40.688 216.745 41.507 218.227 36.788C218.461 36.086 217.33 35.774 217.096 36.476C215.887 40.337 211.363 39.128 209.257 36.905C208.672 36.398 207.853 37.217 208.399 37.763Z" fill="#161616"/>
<path d="M188.859 45.3284C188.859 45.2115 188.82 45.3674 188.781 45.3674C188.742 45.4064 188.665 45.4064 188.587 45.4064C188.47 45.1725 188.314 44.9386 188.197 44.7048C188.236 44.6658 188.236 44.6268 188.275 44.5878C187.963 44.6658 187.768 44.9776 187.885 45.2894C187.963 45.6013 188.314 45.7962 188.587 45.6792C188.937 45.5623 189.171 45.3284 189.327 44.9776C189.444 44.7048 189.21 44.315 188.937 44.276C188.431 44.159 187.846 44.4319 187.729 44.9776C187.69 45.2895 187.807 45.6403 188.119 45.6792C188.431 45.8352 188.82 45.6792 188.859 45.3284Z" fill="#161616"/>
<path d="M194.631 43.8076C194.553 44.3923 194.397 44.4313 194.164 43.9246C193.735 43.5737 193.813 43.4178 194.397 43.4958C194.125 43.3399 193.774 43.4178 193.579 43.6907C193.423 43.9635 193.501 44.3533 193.774 44.5092C194.436 44.899 195.255 44.0415 194.748 43.4178C194.242 42.7942 193.228 43.3399 193.423 44.0805C193.501 44.3923 193.852 44.5872 194.125 44.4703C194.553 44.4703 194.709 44.1195 194.631 43.8076Z" fill="#161616"/>
<path d="M192.526 47.8636C192.526 47.9415 192.487 48.0195 192.409 48.0974C192.487 48.0195 192.331 48.1364 192.37 48.0974C192.409 48.0585 192.253 48.1364 192.37 48.0974C192.292 48.0974 192.253 48.0974 192.292 48.0974C192.331 48.0974 192.331 48.0974 192.214 48.0974C192.175 48.0974 192.175 48.0584 192.136 48.0584C192.175 48.0974 192.175 48.0584 192.097 48.0195C191.941 47.8636 191.941 47.6297 192.058 47.4738C192.214 47.3178 192.487 47.3958 192.565 47.5517C192.409 47.2789 192.058 47.2009 191.746 47.3568C191.473 47.5127 191.356 47.9025 191.551 48.1754C191.785 48.5652 192.292 48.6821 192.682 48.4482C193.072 48.2533 193.228 47.7466 192.994 47.3568C192.526 46.6162 191.278 47.045 191.278 47.8636C191.278 48.1754 191.551 48.4482 191.863 48.4482C192.253 48.4482 192.526 48.2144 192.526 47.8636Z" fill="#161616"/>
<path d="M212.377 42.9109C212.649 42.9498 212.805 43.1058 212.844 43.3007C212.883 43.5345 212.727 43.6905 212.377 43.8074C212.26 43.7684 212.182 43.7684 212.065 43.7294C211.87 43.6125 211.831 43.4566 211.948 43.2617C212.143 42.9498 212.727 43.0668 212.61 43.4956C212.688 43.1837 212.532 42.8329 212.221 42.7939C211.909 42.716 211.597 42.8719 211.519 43.1837C211.363 43.7294 211.831 44.3141 212.415 44.2362C212.922 44.1582 213.234 43.6515 213.078 43.1447C213 42.8719 212.727 42.638 212.415 42.638C212.182 42.638 211.948 42.7939 211.831 42.9888C211.597 43.4176 211.909 44.1192 212.454 44.0802C212.766 44.0413 213.039 43.8464 213.039 43.4956C212.961 43.2227 212.727 42.8719 212.377 42.9109Z" fill="#161616"/>
<path d="M216.783 43.3395C216.822 43.3395 216.822 43.3005 216.783 43.3395C216.744 43.3785 216.666 43.4564 216.589 43.5344C216.355 43.4564 216.16 43.3785 215.926 43.2615C215.926 43.1446 215.926 43.0667 215.926 42.9497C215.926 42.9107 215.965 42.9107 215.965 42.8718C216.043 42.7938 216.121 42.7158 216.16 42.6769C216.394 42.7548 216.589 42.8328 216.822 42.9497C216.822 43.0667 216.822 43.1446 216.822 43.2615V43.2226C216.9 42.9107 216.744 42.5599 216.433 42.5209C216.121 42.443 215.809 42.5989 215.731 42.9107C215.536 43.6903 216.705 44.1581 217.056 43.3785C217.212 43.0667 217.056 42.6769 216.744 42.5209C216.394 42.326 216.004 42.443 215.809 42.7548C215.614 43.0277 215.77 43.4175 216.004 43.5734C216.277 43.7293 216.627 43.5734 216.783 43.3395Z" fill="#161616"/>
<path d="M214.638 47.2005C214.599 47.0836 214.638 47.2005 214.599 47.2395C214.599 47.2785 214.482 47.3564 214.599 47.2785C214.287 47.2395 213.976 47.2005 213.664 47.1615C213.43 46.8107 213.859 46.4989 214.171 46.6548C213.898 46.4989 213.547 46.5768 213.352 46.8497C213.196 47.1225 213.274 47.5123 213.547 47.6683C213.859 47.8242 214.248 47.7852 214.482 47.5123C214.716 47.2785 214.794 46.8497 214.599 46.5379C214.404 46.226 213.937 46.1481 213.664 46.4209C213.391 46.6938 213.274 47.1225 213.391 47.4734C213.508 47.7852 213.781 47.9801 214.093 47.8631C214.521 47.8631 214.755 47.5123 214.638 47.2005Z" fill="#161616"/>
<path d="M197.635 54.065C200.404 56.951 204.811 56.873 207.424 53.792C207.892 53.207 207.073 52.388 206.605 52.973C204.421 55.547 200.833 55.703 198.454 53.246C197.947 52.7 197.128 53.519 197.635 54.065Z" fill="#161616"/>
<path d="M190.459 30.431C191.629 29.144 193.267 28.598 194.983 28.949C195.724 29.105 196.036 27.974 195.295 27.818C193.189 27.389 191.083 28.013 189.64 29.612C189.133 30.158 189.952 30.977 190.459 30.431Z" fill="#161616"/>
<path d="M208.789 28.052C210.583 27.857 212.221 28.286 213.664 29.339C214.288 29.768 214.873 28.754 214.249 28.325C212.65 27.155 210.739 26.648 208.789 26.882C208.048 26.96 208.048 28.13 208.789 28.052Z" fill="#161616"/>
<path d="M188.353 38.114C191.122 41.039 196.699 41.858 198.181 37.139C198.415 36.437 197.284 36.125 197.05 36.827C195.841 40.688 191.317 39.479 189.211 37.256C188.665 36.71 187.807 37.568 188.353 38.114Z" fill="#161616"/>
<path d="M201.224 13.622C203.759 16.664 206.801 19.94 210.467 23.255C215.459 27.779 220.334 31.289 224.585 33.941C224.351 37.451 223.61 42.833 220.958 48.878C218.345 54.884 214.874 59.057 212.495 61.592C212.261 63.464 212.183 66.662 213.704 69.86C217.253 77.309 227.471 80.663 235.31 78.128C236.246 77.816 242.837 75.593 244.982 69.665C245.567 68.027 245.879 66.038 244.982 60.773C243.695 53.168 241.433 47.591 240.77 45.875C238.898 41.117 236.48 34.253 234.296 25.283C233.594 22.163 230.708 10.97 220.568 4.49599C217.916 2.77999 212.222 -0.847004 205.046 0.244996C201.926 0.712996 199.508 1.922 197.987 2.858C194.711 3.131 188.861 4.067 183.245 8.123C170.531 17.249 170.882 33.707 170.921 35.384C170.531 37.451 169.868 40.571 168.698 44.276C165.812 53.324 163.394 54.455 162.848 60.032C162.692 61.436 161.99 68.534 166.67 74.345C167.645 75.554 170.648 79.181 175.757 80.195C182.543 81.56 189.836 77.738 192.839 71.732C194.516 68.378 194.477 65.141 194.321 63.425C193.19 62.411 182.777 52.973 184.025 38.27C185.429 21.539 200.522 13.973 201.224 13.622Z" fill="#444444"/>
<path opacity="0.11" d="M215.653 27.779C216.355 30.431 217.135 34.448 216.706 39.284C216.16 45.446 213.976 49.775 211.714 54.221C209.92 57.731 207.112 62.528 202.666 67.559C203.368 67.442 204.187 67.208 205.006 66.896C206.917 66.194 208.36 65.219 209.335 64.4C209.023 68.066 208.711 71.732 208.438 75.398C210.661 74.423 212.884 73.487 215.107 72.512C214.639 68.612 214.132 64.751 213.664 60.851C214.6 59.681 215.926 57.965 217.33 55.742C219.28 52.661 222.049 48.215 223.492 42.014C223.96 40.025 224.428 37.1 224.389 33.512C221.503 31.64 218.578 29.69 215.653 27.779Z" fill="#3D3D3D"/>
<path opacity="0.16" d="M224.428 34.214C224.116 34.136 223.258 38.153 220.645 44.159C220.645 44.159 218.695 48.605 216.472 52.388C214.405 55.898 210.31 61.787 202.588 67.949C203.446 68.339 204.343 68.729 205.201 69.119C207.736 68.846 210.271 68.612 212.806 68.339C212.689 66.194 212.533 64.049 212.416 61.943C215.458 58.823 219.631 53.714 222.244 46.382C224.35 40.259 224.818 34.292 224.428 34.214Z" fill="#3D3D3D"/>
<path opacity="0.29" d="M166.045 51.491C165.967 52.778 166.045 55.001 167.098 57.38C168.619 60.773 172.168 64.478 175.99 64.439C180.631 64.4 185.779 58.784 185.545 50.828C186.286 52.7 187.417 54.962 189.094 57.38C191.005 60.149 193.072 62.216 194.71 63.659C194.749 64.946 194.632 66.935 193.93 69.158C193.54 70.406 192.565 72.941 190.381 75.32C189.445 76.334 186.403 79.61 181.489 80.429C174.352 81.599 168.97 76.646 167.995 75.71C161.599 69.587 162.691 60.929 162.886 59.603C163.432 55.82 164.992 53.051 166.045 51.491Z" fill="#0A0A0A"/>
<path opacity="0.12" d="M224.701 34.058C225.013 35.969 225.442 39.011 225.754 42.833C226.417 51.023 225.754 53.207 227.08 57.38C227.275 58.043 230.278 67.247 234.685 67.325C238.117 67.403 241.939 62.021 243.46 54.104C244.669 58.043 245.176 61.397 245.41 63.776C245.8 67.637 245.449 68.924 245.293 69.548C244.201 73.097 241.315 75.047 239.794 76.1C234.412 79.766 228.601 79.22 227.743 79.103C226.378 78.947 220.06 78.128 215.848 72.824C215.185 72.005 213.079 69.236 212.455 65.102C212.26 63.737 212.26 62.528 212.338 61.709C214.717 59.369 217.876 55.664 220.45 50.438C223.648 43.808 224.467 37.763 224.701 34.058Z" fill="#0A0A0A"/>
</svg>
