<svg width="624" height="468" viewBox="0 0 624 468" fill="none" xmlns="http://www.w3.org/2000/svg">
<path d="M525.447 370.461C521.703 360.945 521.157 350.532 523.926 340.704C523.653 340.821 523.341 340.938 523.068 341.055C523.77 341.523 524.433 342.03 525.135 342.498C525.408 342.693 525.954 342.498 525.993 342.147C528.567 324.012 536.133 306.852 547.833 292.734C547.521 292.656 547.17 292.578 546.858 292.461C553.254 319.254 545.337 346.749 535.665 371.709C535.392 372.411 536.523 372.723 536.796 372.021C546.546 346.827 554.424 319.176 547.989 292.149C547.911 291.759 547.287 291.564 547.014 291.876C535.236 306.15 527.514 323.505 524.901 341.835C525.174 341.718 525.486 341.601 525.759 341.484C525.057 341.016 524.394 340.509 523.692 340.041C523.38 339.807 522.912 340.041 522.834 340.392C520.026 350.415 520.533 361.101 524.355 370.773C524.589 371.475 525.72 371.163 525.447 370.461Z" fill="#E8E8E8"/>
<path d="M549.783 319.41C552.24 313.443 555.321 307.788 558.948 302.406C558.675 302.484 558.402 302.562 558.129 302.601C558.597 302.952 559.104 303.303 559.572 303.615C559.845 303.81 560.235 303.654 560.391 303.42C563.784 297.297 567.762 291.525 572.325 286.221C572.013 286.182 571.701 286.143 571.389 286.104C577.395 296.439 572.832 309.192 569.166 319.527C565.188 330.876 560.235 341.874 554.073 352.17C550.563 358.02 546.663 363.636 542.373 368.901C541.905 369.486 542.724 370.305 543.192 369.72C551.07 360.048 557.544 349.401 562.809 338.13C565.422 332.553 567.723 326.859 569.829 321.087C571.896 315.354 573.924 309.504 574.86 303.459C575.835 297.297 575.523 290.979 572.364 285.48C572.169 285.168 571.701 285.09 571.428 285.363C566.826 290.784 562.77 296.595 559.299 302.796C559.572 302.718 559.845 302.64 560.118 302.601C559.65 302.25 559.143 301.899 558.675 301.587C558.402 301.392 558.051 301.548 557.856 301.782C554.19 307.203 551.109 312.975 548.574 319.059C548.379 319.8 549.51 320.112 549.783 319.41Z" fill="#E8E8E8"/>
<path d="M546.234 293.124C541.086 316.953 533.247 340.158 529.542 364.26C529.425 365.001 530.556 365.313 530.673 364.572C534.378 340.431 542.217 317.226 547.365 293.436C547.521 292.695 546.39 292.383 546.234 293.124Z" fill="#E8E8E8"/>
<path d="M571.701 286.377C567.684 310.869 555.75 332.904 543.972 354.393C543.621 355.056 544.635 355.641 544.986 354.978C556.803 333.372 568.776 311.259 572.832 286.689C572.949 285.948 571.818 285.636 571.701 286.377Z" fill="#E8E8E8"/>
<path d="M530.244 321.789C533.013 326.079 534.846 330.837 535.626 335.907C535.743 336.648 536.874 336.336 536.757 335.595C535.977 330.447 534.105 325.572 531.258 321.204C530.829 320.58 529.815 321.165 530.244 321.789Z" fill="#E8E8E8"/>
<path d="M538.434 328.887C542.373 322.842 546.312 316.758 550.251 310.713C550.68 310.089 549.666 309.504 549.237 310.128C545.298 316.173 541.359 322.257 537.42 328.302C536.991 328.926 538.005 329.511 538.434 328.887Z" fill="#E8E8E8"/>
<path d="M554.112 308.334C553.956 316.446 554.541 324.519 555.789 332.514C555.906 333.255 557.037 332.943 556.92 332.202C555.672 324.285 555.126 316.329 555.282 308.334C555.321 307.554 554.151 307.554 554.112 308.334Z" fill="#E8E8E8"/>
<path d="M565.422 313.404C568.62 310.167 571.74 306.774 574.704 303.303C575.172 302.718 574.353 301.899 573.885 302.484C570.921 305.955 567.84 309.309 564.603 312.585C564.057 313.131 564.876 313.95 565.422 313.404Z" fill="#E8E8E8"/>
<path d="M102.804 350.22C94.3019 344.175 88.4129 335.01 86.4239 324.753C86.3069 324.987 86.1509 325.221 86.0339 325.455C86.9699 325.182 87.8279 325.416 88.5299 326.118C89.0369 326.625 89.6999 326.001 89.4659 325.416C84.2789 313.716 81.5489 301.041 81.5099 288.249C81.3539 288.444 81.2369 288.639 81.0809 288.795C81.4709 288.99 81.8999 289.224 82.2899 289.419C82.5629 289.887 83.4209 289.731 83.3819 289.107C83.1089 285.714 82.8359 282.321 82.5629 278.928C82.3289 275.925 81.9779 272.766 83.9279 270.231C83.6549 270.309 83.3819 270.387 83.1089 270.426C85.8389 272.376 87.4379 275.535 89.0369 278.382C90.5969 281.19 92.0789 284.076 93.4829 286.962C96.4079 293.046 98.9039 299.325 100.971 305.76C105.066 318.318 107.523 331.344 108.342 344.526C108.381 345.267 109.551 345.267 109.512 344.526C108.654 330.798 106.041 317.187 101.673 304.122C99.5279 297.726 96.9929 291.486 94.0289 285.441C92.5079 282.321 90.9089 279.279 89.1929 276.276C87.7109 273.663 86.1899 271.167 83.6939 269.373C83.4209 269.178 83.0699 269.334 82.8749 269.568C81.1199 271.869 81.0809 274.755 81.2369 277.563C81.5099 281.385 81.8609 285.207 82.1729 289.068C82.5239 288.951 82.9139 288.873 83.2649 288.756C82.6799 287.742 81.8609 287.43 80.7299 287.586C80.4959 287.625 80.3009 287.898 80.3009 288.132C80.3789 301.158 83.1479 313.989 88.4129 325.884C88.7249 325.65 89.0369 325.416 89.3489 325.182C88.3349 324.129 87.0869 323.817 85.7219 324.207C85.4099 324.285 85.2539 324.597 85.3319 324.909C87.3989 335.478 93.4829 344.838 102.219 351.078C102.843 351.663 103.428 350.649 102.804 350.22Z" fill="#E8E8E8"/>
<path d="M99.294 296.868C98.943 294.645 98.67 292.422 98.553 290.199C98.436 288.132 97.851 285.051 99.411 283.413C100.308 282.516 100.737 282.087 100.932 280.722C101.205 278.538 101.205 276.315 101.439 274.131C101.907 269.568 102.57 265.083 103.506 260.598C103.662 259.857 103.74 258.453 104.13 257.79C105.066 256.269 106.509 257.868 107.25 258.609C108.576 259.935 109.629 261.495 110.526 263.133C114.27 269.997 115.284 278.46 116.298 286.104C117.429 294.606 117.897 303.186 117.663 311.766C117.429 321.516 116.103 331.227 112.749 340.431C112.476 341.133 113.607 341.445 113.88 340.743C120.393 322.764 119.808 302.367 117.117 283.725C115.986 275.808 114.777 266.799 109.98 260.091C108.927 258.648 105.729 254.046 103.662 256.113C102.57 257.166 102.492 259.623 102.219 260.988C101.712 263.562 101.244 266.136 100.893 268.749C100.542 271.284 100.269 273.819 100.035 276.354C99.918 277.719 100.035 279.279 99.723 280.605C99.411 281.892 98.475 282.282 97.851 283.296C96.837 284.856 97.227 287.313 97.305 289.068C97.422 291.759 97.734 294.45 98.163 297.141C98.28 297.921 99.411 297.609 99.294 296.868Z" fill="#E8E8E8"/>
<path d="M104.013 256.971C110.292 281.307 112.047 306.618 109.2 331.578C109.122 332.319 110.292 332.319 110.37 331.578C113.217 306.501 111.423 281.073 105.144 256.659C104.949 255.957 103.818 256.269 104.013 256.971Z" fill="#E8E8E8"/>
<path d="M82.2899 270.192C91.4549 293.631 98.5919 317.811 103.701 342.459C103.857 343.2 104.988 342.888 104.832 342.147C99.7619 317.499 92.5859 293.319 83.4209 269.88C83.1089 269.178 81.9779 269.49 82.2899 270.192Z" fill="#E8E8E8"/>
<path d="M82.485 306.072C88.881 307.866 94.185 312.078 97.422 317.889C97.773 318.552 98.787 317.967 98.436 317.304C95.043 311.259 89.427 306.852 82.797 304.98C82.056 304.746 81.744 305.877 82.485 306.072Z" fill="#E8E8E8"/>
<path d="M95.4325 290.94C94.7309 296.985 94.614 303.03 95.0817 309.075C95.1207 309.816 96.2901 309.816 96.2511 309.075C95.7834 303.03 95.9003 296.985 96.6019 290.94C96.6799 290.199 95.5105 290.199 95.4325 290.94Z" fill="#E8E8E8"/>
<path d="M99.567 283.14C104.871 290.043 108.576 297.999 110.448 306.501C110.604 307.242 111.735 306.93 111.579 306.189C109.668 297.609 105.963 289.536 100.581 282.555C100.152 281.931 99.138 282.516 99.567 283.14Z" fill="#E8E8E8"/>
<path d="M113.139 269.1C111.189 273.624 109.824 278.304 109.083 283.179C108.966 283.92 110.097 284.232 110.214 283.491C110.916 278.733 112.242 274.131 114.153 269.685C114.465 269.022 113.451 268.398 113.139 269.1Z" fill="#E8E8E8"/>
<path d="M61.9319 378.105C83.0699 370.656 105.612 376.584 126.828 380.367C149.487 384.384 172.38 387.036 195.312 388.245C208.299 388.947 221.286 389.181 234.312 388.947C235.053 388.947 235.053 387.777 234.312 387.777C210.873 388.167 187.395 387.075 164.073 384.54C152.217 383.253 140.4 381.576 128.661 379.509C118.17 377.676 107.718 375.414 97.1489 374.166C85.2539 372.801 73.0469 372.957 61.6199 376.974C60.9179 377.247 61.2299 378.378 61.9319 378.105Z" fill="#E8E8E8"/>
<path d="M184.431 377.13C219.414 385.71 255.645 383.448 291.135 380.172C309.387 378.495 327.6 376.506 345.891 375.531C364.143 374.556 382.356 374.868 400.569 376.662C421.746 378.768 442.689 382.629 463.515 386.997C464.256 387.153 464.568 386.022 463.827 385.866C427.635 378.261 391.092 372.684 354.042 374.01C317.772 375.297 281.814 381.264 245.505 381.927C225.108 382.317 204.633 380.874 184.782 375.999C184.002 375.804 183.69 376.935 184.431 377.13Z" fill="#E8E8E8"/>
<path d="M337.272 401.895C365.976 395.967 395.187 401.583 423.774 405.366C452.205 409.11 480.831 409.734 509.301 406.107C525.057 404.118 540.618 400.92 555.867 396.63C556.608 396.435 556.296 395.304 555.555 395.499C527.904 403.299 499.239 407.355 470.496 407.472C456.222 407.511 442.026 406.536 427.869 404.742C413.4 402.909 399.009 400.53 384.501 399.165C368.628 397.683 352.599 397.527 336.921 400.803C336.219 400.92 336.531 402.051 337.272 401.895Z" fill="#E8E8E8"/>
<path d="M466.011 372.021C480.597 377.442 496.275 374.244 510.9 370.734C527.085 366.873 543.192 363.675 559.845 362.739C569.088 362.232 578.37 362.31 587.613 362.895C588.354 362.934 588.354 361.764 587.613 361.725C571.545 360.672 555.438 361.296 539.487 363.597C531.531 364.767 523.653 366.405 515.853 368.316C508.092 370.188 500.292 372.177 492.336 373.152C483.561 374.244 474.669 373.971 466.323 370.851C465.621 370.656 465.309 371.787 466.011 372.021Z" fill="#E8E8E8"/>
<path d="M454.194 247.143C453.063 250.653 451.893 254.124 450.762 257.634C450.489 258.531 450.216 259.389 450.489 260.325C450.879 261.573 452.205 262.314 452.244 263.718C452.478 263.523 452.751 263.328 452.985 263.172C448.383 261.807 448.539 269.139 448.695 271.713C448.968 276.822 450.606 281.736 453.336 286.026C453.726 286.65 454.74 286.065 454.35 285.441C452.4 282.399 451.035 279.045 450.333 275.496C449.943 273.585 448.578 263.055 452.673 264.264C453.024 264.381 453.414 264.069 453.414 263.718C453.414 262.782 453.063 262.158 452.517 261.417C451.503 259.974 451.581 258.921 452.127 257.244C453.18 253.968 454.272 250.731 455.325 247.455C455.559 246.714 454.428 246.402 454.194 247.143Z" fill="#E8E8E8"/>
<path d="M454.584 247.299C458.991 251.784 460.083 259.077 460.434 265.083C460.824 271.557 459.888 278.031 457.821 284.154C457.587 284.856 458.718 285.168 458.952 284.466C461.214 277.797 462.15 270.699 461.526 263.679C461.019 257.712 459.771 250.887 455.442 246.441C454.857 245.934 454.038 246.753 454.584 247.299Z" fill="#E8E8E8"/>
<path d="M461.565 264.654C462.345 259.428 463.671 254.358 465.504 249.405C465.231 249.522 464.919 249.639 464.646 249.756C465.465 250.302 466.284 250.887 467.103 251.433C467.493 251.706 467.961 251.355 468 250.926C468.351 242.229 475.137 235.56 476.97 227.292C476.58 227.292 476.229 227.292 475.839 227.292C478.959 246.09 475.02 265.668 464.88 281.814C464.49 282.438 465.504 283.023 465.894 282.399C476.19 265.98 480.129 246.09 476.97 226.98C476.892 226.395 475.956 226.434 475.839 226.98C473.967 235.404 467.181 242.073 466.83 250.926C467.142 250.77 467.415 250.575 467.727 250.419C466.908 249.873 466.089 249.288 465.27 248.742C464.919 248.508 464.529 248.781 464.412 249.093C462.579 254.046 461.253 259.116 460.473 264.342C460.317 265.083 461.448 265.395 461.565 264.654Z" fill="#E8E8E8"/>
<path d="M475.722 229.71C474.474 244.101 470.574 258.141 464.217 271.089C463.905 271.752 464.88 272.337 465.231 271.674C471.666 258.492 475.644 244.296 476.892 229.71C476.931 228.93 475.761 228.969 475.722 229.71Z" fill="#E8E8E8"/>
<path d="M454.038 248.235C455.637 259.857 457.158 271.713 454.701 283.296C454.545 284.037 455.676 284.349 455.832 283.608C458.367 271.791 456.807 259.74 455.169 247.923C455.091 247.182 453.96 247.494 454.038 248.235Z" fill="#E8E8E8"/>
<path d="M397.371 287.313C403.377 286.845 409.422 287.274 415.272 288.717C420.225 289.926 425.139 292.422 430.326 291.642C435.669 290.823 440.154 287.274 445.653 287.079C450.957 286.884 456.183 288.717 461.409 287.196C462.15 287.001 461.838 285.87 461.097 286.065C455.637 287.625 450.138 285.48 444.639 285.987C439.647 286.455 435.474 289.458 430.638 290.433C425.061 291.525 419.523 288.483 414.141 287.313C408.603 286.104 402.948 285.753 397.332 286.221C396.63 286.182 396.63 287.352 397.371 287.313Z" fill="#E8E8E8"/>
<path d="M53.3519 341.991C64.1159 352.053 79.7159 341.172 92.0789 345.189C92.7809 345.423 93.0929 344.292 92.3909 344.058C85.7999 341.913 79.0529 343.59 72.4229 344.604C66.2219 345.54 59.0849 345.696 54.1709 341.133C53.6249 340.665 52.7669 341.484 53.3519 341.991Z" fill="#E8E8E8"/>
<path d="M517.413 356.226C453.882 360.243 386.802 362.7 316.446 363.051C245.583 363.402 177.996 361.569 114.036 358.176C120.315 347.139 126.633 336.141 132.99 325.182C138.099 316.329 143.286 307.515 148.473 298.74C203.463 301.86 262.899 303.108 326.196 301.548C385.827 300.066 441.909 296.244 493.974 290.901C498.771 297.648 504.309 306.774 508.833 318.279C514.683 333.216 516.711 346.593 517.413 356.226Z" fill="white" stroke="#161616" stroke-width="1.16938" stroke-miterlimit="10"/>
<path d="M143.481 350.22C165.633 352.599 187.941 353.34 210.249 352.443C210.99 352.404 210.99 351.234 210.249 351.273C187.98 352.17 165.672 351.429 143.481 349.05C142.74 348.972 142.74 350.142 143.481 350.22Z" fill="#161616"/>
<path d="M182.91 344.603C193.713 345.032 204.555 344.759 215.358 344.759C226.317 344.72 237.237 344.72 248.196 344.681C248.937 344.681 248.937 343.512 248.196 343.512C237.237 343.551 226.317 343.551 215.358 343.59C204.555 343.629 193.713 343.863 182.91 343.434C182.169 343.395 182.169 344.564 182.91 344.603Z" fill="#161616"/>
<path d="M327.093 341.757C360.126 339.651 393.12 337.155 426.114 334.269C426.855 334.191 426.855 333.021 426.114 333.099C393.159 335.985 360.126 338.481 327.093 340.587C326.352 340.626 326.352 341.796 327.093 341.757Z" fill="#161616"/>
<path d="M413.205 321.711C438.789 320.775 464.334 319.176 489.84 316.797C490.581 316.719 490.581 315.549 489.84 315.627C464.334 317.967 438.789 319.605 413.205 320.541C412.464 320.541 412.464 321.711 413.205 321.711Z" fill="#161616"/>
<path d="M435.591 346.749C457.08 345.813 478.569 344.877 500.058 343.902C500.799 343.863 500.799 342.693 500.058 342.732C478.569 343.668 457.08 344.604 435.591 345.579C434.85 345.618 434.85 346.788 435.591 346.749Z" fill="#161616"/>
<path d="M152.061 297.336C153.036 299.169 154.011 301.002 155.025 302.874C155.922 303.459 158.964 305.253 162.786 304.551C164.385 304.278 165.633 303.654 166.452 303.147C167.544 301.236 168.636 299.325 169.728 297.414C167.583 296.751 164.424 295.971 160.524 296.01C156.975 296.049 154.089 296.712 152.061 297.336Z" fill="white" stroke="#161616" stroke-width="1.16938" stroke-miterlimit="10"/>
<path d="M152.724 297.999C156.234 300.183 161.265 299.676 165.204 299.442C165.945 299.403 165.945 298.233 165.204 298.272C161.499 298.467 156.624 299.052 153.309 296.985C152.685 296.595 152.1 297.609 152.724 297.999Z" fill="#161616"/>
<path d="M143.637 271.713C146.952 280.293 150.267 288.873 153.543 297.453C153.816 298.155 154.947 297.843 154.674 297.141C151.359 288.561 148.044 279.981 144.768 271.401C144.495 270.699 143.364 270.972 143.637 271.713Z" fill="#161616"/>
<path d="M148.629 271.908C150.345 280.683 152.373 289.419 154.674 298.077C154.869 298.818 156 298.506 155.805 297.765C153.465 289.107 151.437 280.371 149.76 271.596C149.604 270.855 148.473 271.167 148.629 271.908Z" fill="#161616"/>
<path d="M143.871 267.345C143.286 265.473 144.846 263.718 144.417 261.768C143.91 259.701 141.882 258.843 142.116 256.464C142.272 254.826 143.091 253.266 142.818 251.589C142.623 250.536 141.96 249.912 141.492 248.976C140.946 247.806 141.18 246.714 141.492 245.505C141.804 244.14 142.311 242.658 141.765 241.254C141.492 240.513 140.946 240.162 140.478 239.577C139.386 238.29 139.542 236.964 139.815 235.404C140.673 230.568 140.712 225.927 139.464 221.13C139.269 220.389 138.138 220.701 138.333 221.442C139.035 224.172 139.425 226.941 139.347 229.749C139.269 232.128 138.645 234.351 138.45 236.691C138.294 238.602 138.918 239.421 140.088 240.786C141.609 242.619 140.322 244.725 140.049 246.792C139.971 247.455 139.971 248.157 140.166 248.82C140.478 249.912 141.453 250.653 141.648 251.823C141.96 253.695 140.79 255.528 140.907 257.4C141.063 259.428 143.169 260.481 143.325 262.431C143.481 264.264 142.155 265.746 142.74 267.657C142.974 268.359 144.105 268.047 143.871 267.345Z" fill="#E8E8E8"/>
<path d="M149.526 266.448C148.317 265.317 149.838 264.147 149.409 262.821C149.175 262.08 148.395 261.534 148.356 260.715C148.317 259.974 148.824 259.155 148.941 258.414C149.136 257.01 148.395 256.347 148.044 255.06C147.576 253.305 148.629 251.355 148.941 249.639C149.175 248.313 149.058 247.182 148.59 245.934C148.2 244.92 147.81 244.062 147.888 242.97C147.966 242.073 148.356 241.254 148.551 240.396C149.331 237.276 146.562 233.961 147.888 231.075C148.2 230.412 147.186 229.788 146.874 230.49C145.314 233.805 148.2 236.964 147.342 240.396C146.913 242.112 146.406 243.36 146.991 245.115C147.342 246.09 147.849 247.026 147.888 248.118C147.966 249.21 147.576 250.263 147.303 251.277C146.952 252.603 146.562 254.007 146.913 255.372C147.225 256.503 147.966 257.361 147.693 258.609C147.537 259.233 147.264 259.818 147.225 260.481C147.186 261.105 147.264 261.573 147.576 262.119C147.732 262.392 148.2 262.821 148.239 263.016C148.317 263.328 148.044 263.952 147.966 264.225C147.693 265.434 147.771 266.331 148.707 267.228C149.253 267.774 150.072 266.955 149.526 266.448Z" fill="#E8E8E8"/>
<path d="M96.9539 90.051C104.676 92.469 112.866 92.313 120.861 92.157C128.505 92.001 136.11 91.494 143.676 90.714C158.769 89.115 173.706 86.268 188.37 82.329C218.049 74.373 246.48 62.049 273.039 46.683C288.093 37.986 302.523 28.314 316.368 17.823C316.953 17.355 316.368 16.341 315.783 16.809C291.564 35.178 265.434 51.09 237.666 63.492C209.82 75.933 180.258 84.903 149.955 88.803C141.648 89.895 133.263 90.597 124.878 90.87C115.752 91.182 106.119 91.689 97.3049 88.92C96.5639 88.725 96.2519 89.817 96.9539 90.051Z" fill="#E8E8E8"/>
<path d="M298.935 30.303C309.348 39.312 321.633 45.747 334.269 51.09C347.841 56.823 361.881 61.581 376.155 65.247C404.391 72.579 433.68 75.855 462.813 74.958C479.427 74.451 496.782 73.32 512.655 68.016C513.357 67.782 513.045 66.651 512.343 66.885C498.225 71.643 482.976 72.852 468.195 73.593C453.882 74.295 439.53 73.983 425.295 72.657C396.474 70.005 368.043 63.258 341.133 52.611C326.43 46.8 311.883 39.897 299.832 29.484C299.169 28.977 298.35 29.796 298.935 30.303Z" fill="#E8E8E8"/>
<path d="M142.545 50.232C156.858 58.5 173.901 60.528 190.047 62.244C206.661 63.999 223.431 64.467 240.162 63.726C273.156 62.244 305.994 56.004 337.194 45.201C354.783 39.117 371.826 31.59 388.167 22.737C388.83 22.386 388.245 21.372 387.582 21.723C358.839 37.362 327.795 48.711 295.776 55.497C263.679 62.283 230.568 64.467 197.847 61.815C188.565 61.074 179.244 60.021 170.079 58.344C160.68 56.628 151.437 54.054 143.13 49.257C142.506 48.867 141.921 49.881 142.545 50.232Z" fill="#E8E8E8"/>
<path d="M190.593 75.543C190.593 80.379 190.593 85.254 190.593 90.09C190.593 90.831 191.762 90.831 191.762 90.09C191.762 85.254 191.762 80.379 191.762 75.543C191.762 74.763 190.593 74.763 190.593 75.543Z" fill="#161616"/>
<path d="M190.944 99.684C190.944 105.378 190.944 111.033 190.944 116.727C190.944 117.468 192.113 117.468 192.113 116.727C192.113 111.033 192.113 105.378 192.113 99.684C192.113 98.943 190.944 98.904 190.944 99.684Z" fill="#161616"/>
<path d="M210.834 115.674C210.834 122.772 210.834 129.87 210.834 136.968C210.834 137.709 212.003 137.709 212.003 136.968C212.003 129.87 212.003 122.772 212.003 115.674C212.003 114.894 210.834 114.894 210.834 115.674Z" fill="#161616"/>
<path d="M210.132 154.011C210.132 157.443 210.132 160.875 210.132 164.307C210.132 165.048 211.301 165.048 211.301 164.307C211.301 160.875 211.301 157.443 211.301 154.011C211.301 153.27 210.132 153.27 210.132 154.011Z" fill="#161616"/>
<path d="M250.614 49.257C250.614 55.536 250.614 61.815 250.614 68.094C250.614 68.835 251.783 68.835 251.783 68.094C251.783 61.815 251.783 55.536 251.783 49.257C251.783 48.516 250.614 48.516 250.614 49.257Z" fill="#161616"/>
<path d="M250.614 74.8021C250.614 79.5211 250.614 84.279 250.614 88.998C250.614 89.739 251.783 89.739 251.783 88.998C251.783 84.279 251.783 79.5211 251.783 74.8021C251.783 74.0611 250.614 74.0611 250.614 74.8021Z" fill="#161616"/>
<path d="M418.197 56.355C418.197 64.506 418.197 72.696 418.197 80.847C418.197 81.588 419.366 81.588 419.366 80.847C419.366 72.696 419.366 64.506 419.366 56.355C419.366 55.614 418.197 55.614 418.197 56.355Z" fill="#161616"/>
<path d="M417.846 90.441C417.846 94.692 417.846 98.982 417.846 103.233C417.846 103.974 419.015 103.974 419.015 103.233C419.015 98.982 419.015 94.692 419.015 90.441C419.015 89.7 417.846 89.7 417.846 90.441Z" fill="#161616"/>
<path d="M348.231 42.159C348.231 47.385 348.231 52.572 348.231 57.798C348.231 58.539 349.4 58.539 349.4 57.798C349.4 52.572 349.4 47.385 349.4 42.159C349.4 41.418 348.231 41.379 348.231 42.159Z" fill="#161616"/>
<path d="M348.621 72.696C348.621 77.415 348.621 82.173 348.621 86.892C348.621 87.633 349.79 87.633 349.79 86.892C349.79 82.173 349.79 77.415 349.79 72.696C349.79 71.955 348.621 71.955 348.621 72.696Z" fill="#161616"/>
<path d="M457.275 98.241C457.275 102.843 457.275 107.484 457.275 112.086C457.275 112.827 458.444 112.827 458.444 112.086C458.444 107.484 458.444 102.843 458.444 98.241C458.444 97.5 457.275 97.5 457.275 98.241Z" fill="#161616"/>
<path d="M457.626 121.68C457.626 125.346 457.626 129.012 457.626 132.678C457.626 133.419 458.795 133.419 458.795 132.678C458.795 129.012 458.795 125.346 458.795 121.68C458.795 120.939 457.626 120.939 457.626 121.68Z" fill="#161616"/>
<path d="M191.49 101.946C195.065 101.946 197.964 99.0475 197.964 95.472C197.964 91.8966 195.065 88.998 191.49 88.998C187.914 88.998 185.016 91.8966 185.016 95.472C185.016 99.0475 187.914 101.946 191.49 101.946Z" fill="#7C7C7C"/>
<path d="M211.029 171.873C213.484 171.873 215.475 169.882 215.475 167.427C215.475 164.972 213.484 162.981 211.029 162.981C208.573 162.981 206.583 164.972 206.583 167.427C206.583 169.882 208.573 171.873 211.029 171.873Z" fill="#7C7C7C"/>
<path d="M251.706 97.305C252.869 97.305 253.812 96.3621 253.812 95.199C253.812 94.0359 252.869 93.093 251.706 93.093C250.543 93.093 249.6 94.0359 249.6 95.199C249.6 96.3621 250.543 97.305 251.706 97.305Z" fill="#7C7C7C"/>
<path d="M350.298 103.233C351.935 103.233 353.262 101.906 353.262 100.269C353.262 98.6321 351.935 97.3051 350.298 97.3051C348.661 97.3051 347.334 98.6321 347.334 100.269C347.334 101.906 348.661 103.233 350.298 103.233Z" fill="#7C7C7C"/>
<path d="M350.103 66.456C351.611 66.456 352.833 65.2337 352.833 63.726C352.833 62.2183 351.611 60.996 350.103 60.996C348.595 60.996 347.373 62.2183 347.373 63.726C347.373 65.2337 348.595 66.456 350.103 66.456Z" fill="#7C7C7C"/>
<path d="M210.639 151.086C212.319 151.086 213.681 149.724 213.681 148.044C213.681 146.364 212.319 145.002 210.639 145.002C208.959 145.002 207.597 146.364 207.597 148.044C207.597 149.724 208.959 151.086 210.639 151.086Z" fill="#2D2D2D"/>
<path d="M250.809 50.544C252.467 50.544 253.812 49.1995 253.812 47.541C253.812 45.8825 252.467 44.538 250.809 44.538C249.15 44.538 247.806 45.8825 247.806 47.541C247.806 49.1995 249.15 50.544 250.809 50.544Z" fill="#2D2D2D"/>
<path d="M250.809 77.103C252.467 77.103 253.812 75.7585 253.812 74.1C253.812 72.4415 252.467 71.097 250.809 71.097C249.15 71.097 247.806 72.4415 247.806 74.1C247.806 75.7585 249.15 77.103 250.809 77.103Z" fill="#2D2D2D"/>
<path d="M348.816 92.001C349.634 92.001 350.298 91.3375 350.298 90.519C350.298 89.7005 349.634 89.037 348.816 89.037C347.997 89.037 347.334 89.7005 347.334 90.519C347.334 91.3375 347.997 92.001 348.816 92.001Z" fill="#2D2D2D"/>
<path d="M418.821 115.635C422.246 115.635 425.022 112.859 425.022 109.434C425.022 106.009 422.246 103.233 418.821 103.233C415.396 103.233 412.62 106.009 412.62 109.434C412.62 112.859 415.396 115.635 418.821 115.635Z" fill="#2D2D2D"/>
<path d="M458.874 144.729C460.511 144.729 461.838 143.402 461.838 141.765C461.838 140.128 460.511 138.801 458.874 138.801C457.237 138.801 455.91 140.128 455.91 141.765C455.91 143.402 457.237 144.729 458.874 144.729Z" fill="#2D2D2D"/>
<path d="M418.782 66.456C420.29 66.456 421.512 65.2337 421.512 63.726C421.512 62.2183 420.29 60.996 418.782 60.996C417.274 60.996 416.052 62.2183 416.052 63.726C416.052 65.2337 417.274 66.456 418.782 66.456Z" fill="#2D2D2D"/>
<path d="M418.821 77.649C419.984 77.649 420.927 76.7061 420.927 75.543C420.927 74.3799 419.984 73.437 418.821 73.437C417.658 73.437 416.715 74.3799 416.715 75.543C416.715 76.7061 417.658 77.649 418.821 77.649Z" fill="#7C7C7C"/>
<path d="M458.211 118.014C459.374 118.014 460.317 117.071 460.317 115.908C460.317 114.745 459.374 113.802 458.211 113.802C457.048 113.802 456.105 114.745 456.105 115.908C456.105 117.071 457.048 118.014 458.211 118.014Z" fill="#7C7C7C"/>
<path d="M162.435 146.211C160.602 149.097 158.769 151.944 156.936 154.83C155.493 157.092 154.05 159.471 153.543 162.162C152.724 166.803 155.844 169.923 158.496 173.277C160.017 175.188 161.421 177.372 160.758 179.868C160.173 182.13 158.301 184.08 158.574 186.576C158.691 187.629 159.237 188.448 159.705 189.345C160.485 190.905 161.031 192.582 161.226 194.298C161.577 197.496 160.836 200.694 159.159 203.424C158.769 204.087 159.783 204.672 160.173 204.009C162.747 199.758 163.254 194.415 161.265 189.813C160.563 188.175 159.393 186.849 159.9 184.899C160.251 183.612 160.992 182.481 161.499 181.272C162.24 179.439 162.318 177.606 161.538 175.773C159.783 171.639 154.908 168.948 154.596 164.151C154.401 160.914 156.312 157.95 157.95 155.337C159.783 152.451 161.616 149.565 163.449 146.718C163.839 146.172 162.825 145.587 162.435 146.211Z" fill="#E8E8E8"/>
<path d="M234.468 190.398C231.582 193.323 230.139 197.418 230.607 201.513C230.841 203.658 231.699 205.452 232.713 207.363C234.234 210.249 234.585 212.433 233.415 215.475C232.713 217.269 231.816 219.102 232.05 221.052C232.284 223.275 234 224.445 235.053 226.278C237.276 230.256 232.791 234.429 233.844 238.68C234.039 239.421 235.17 239.109 234.975 238.368C234 234.546 237.666 231.153 236.73 227.292C236.262 225.42 234.741 224.25 233.805 222.651C232.479 220.389 233.727 218.01 234.546 215.787C235.209 214.032 235.677 212.277 235.287 210.405C234.78 208.104 233.22 206.232 232.401 204.048C230.763 199.641 232.011 194.532 235.287 191.217C235.833 190.671 235.014 189.852 234.468 190.398Z" fill="#E8E8E8"/>
<path d="M487.656 198.9C483.756 203.463 479.973 209.352 480.363 215.631C480.558 218.634 481.884 221.052 483.522 223.509C485.433 226.356 487.071 229.047 486.135 232.596C484.887 237.237 480.285 241.878 481.884 246.987C482.859 250.107 485.979 251.823 486.72 255.099C487.578 258.999 485.784 263.094 484.185 266.565C483.873 267.228 484.887 267.852 485.199 267.15C486.525 264.264 487.812 261.261 488.046 258.063C488.28 255.021 487.266 252.603 485.394 250.263C483.171 247.572 482.157 245.271 483.327 241.878C484.224 239.265 485.823 236.925 486.798 234.351C487.734 231.933 487.968 229.437 486.954 226.98C485.901 224.406 483.951 222.417 482.703 219.96C479.193 212.94 483.912 205.062 488.475 199.758C488.982 199.173 488.163 198.354 487.656 198.9Z" fill="#E8E8E8"/>
<path d="M498.615 240.435C496.587 242.346 495.3 244.842 494.949 247.611C494.52 250.926 495.768 253.227 497.094 256.113C498.732 259.662 495.534 262.86 496.392 266.448C496.86 268.398 497.913 269.88 497.874 271.947C497.796 274.092 496.938 276.042 495.456 277.563C494.949 278.109 495.768 278.928 496.275 278.382C498.264 276.354 499.317 273.585 498.966 270.738C498.771 269.1 497.874 267.696 497.523 266.097C497.016 263.952 498.186 262.002 498.615 259.974C499.356 256.542 497.016 254.514 496.275 251.394C495.378 247.689 496.665 243.789 499.434 241.215C500.019 240.747 499.2 239.928 498.615 240.435Z" fill="#E8E8E8"/>
<path d="M390.156 131.664C387.933 135.096 385.476 139.152 386.763 143.403C387.387 145.47 389.103 146.328 390.039 148.122C390.936 149.916 390.078 152.022 389.454 153.738C388.557 156.195 387.309 159.198 389.571 161.304C390.468 162.123 391.56 162.591 391.95 163.878C392.262 164.931 391.989 166.179 391.794 167.193C391.404 169.065 390.858 170.937 391.092 172.848C391.17 173.589 392.34 173.589 392.262 172.848C391.911 169.65 394.251 166.062 392.886 162.981C392.106 161.187 389.688 160.68 389.454 158.652C389.259 157.131 390.078 155.454 390.585 154.05C391.56 151.359 392.262 148.668 390.156 146.328C388.206 144.183 387.192 142.116 387.816 139.152C388.323 136.617 389.805 134.355 391.209 132.21C391.599 131.586 390.585 131.001 390.156 131.664Z" fill="#E8E8E8"/>
<path d="M229.827 90.48C227.526 92.079 227.136 94.926 228.735 97.149C230.178 99.099 227.955 99.996 228.384 101.829C228.54 102.492 229.086 102.882 229.398 103.467C230.178 104.91 229.281 106.431 228.54 107.718C228.15 108.381 229.164 108.966 229.554 108.303C230.256 107.094 231.036 105.69 230.919 104.247C230.88 103.584 230.607 103.155 230.334 102.57C230.139 102.219 229.905 102.102 229.749 101.673C229.554 100.932 229.827 100.776 230.178 100.074C230.685 99.099 230.88 98.28 230.334 97.266C229.827 96.33 229.008 95.784 228.93 94.614C228.852 93.366 229.437 92.157 230.451 91.455C231.036 91.065 230.451 90.051 229.827 90.48Z" fill="#2B2B2B"/>
<path d="M174.018 119.73C173.277 120.549 172.809 121.446 172.731 122.538C172.653 123.786 173.667 125.073 173.121 126.204C172.731 127.023 172.302 127.335 172.38 128.349C172.458 129.402 174.213 132.288 172.614 132.912C171.912 133.185 172.224 134.316 172.926 134.043C174.876 133.302 174.486 131.235 173.94 129.636C173.511 128.388 173.862 127.764 174.408 126.594C174.525 126.321 174.72 126.126 174.759 125.814C174.837 125.19 174.486 124.839 174.252 124.332C173.628 122.967 173.784 121.641 174.798 120.549C175.344 120.003 174.486 119.145 174.018 119.73Z" fill="#2B2B2B"/>
<path d="M472.446 131.859C470.886 131.742 469.755 132.912 469.521 134.433C469.17 136.656 471.003 138.216 471.939 140.01C472.563 141.258 472.329 142.233 471.939 143.442C471.744 144.066 471.51 143.871 471.471 144.573C471.432 145.158 471.666 145.587 472.056 146.016C473.109 147.225 473.967 147.771 473.85 149.565C473.733 151.164 472.992 152.685 472.29 154.05C471.939 154.713 472.953 155.298 473.304 154.635C474.123 153.075 474.942 151.359 475.02 149.565C475.137 147.81 474.435 147.03 473.499 145.704C473.187 145.509 473.07 145.197 473.109 144.768C472.797 144.3 472.875 143.91 473.265 143.559C473.343 143.208 473.538 142.935 473.616 142.545C473.772 141.726 473.616 140.907 473.304 140.088C472.992 139.23 472.446 138.528 471.939 137.787C471.51 137.163 471.003 136.461 470.808 135.72C470.496 134.589 470.808 132.873 472.485 132.99C473.187 133.107 473.187 131.937 472.446 131.859Z" fill="#2B2B2B"/>
<path d="M351.741 343.98C344.058 345.15 337.584 345.423 333.099 345.423C330.642 381.186 330.993 399.321 334.191 399.828C336.882 400.257 341.601 388.167 348.309 363.558C357.552 361.257 366.834 358.956 376.077 356.655C377.013 347.607 374.907 344.097 372.801 342.498C368.901 339.573 363.441 342.147 351.741 343.98Z" fill="#161616" stroke="#161616" stroke-width="1.16938" stroke-miterlimit="10"/>
<path d="M314.028 280.605C307.554 286.494 309.777 302.484 319.41 319.215C321.672 318.942 325.221 318.708 329.472 319.059C331.227 319.215 336.726 319.761 350.766 324.87C353.691 325.962 357.747 327.483 362.583 329.55C358.8 330.564 355.017 331.578 351.195 332.592C351.624 337.155 352.404 342.342 353.808 347.88C356.382 358.137 360.204 366.522 363.714 372.801C372.489 370.227 379.665 367.692 384.852 365.82C397.293 361.257 403.884 357.981 410.202 353.574C416.949 348.855 420.498 344.877 421.59 339.885C422.214 336.999 421.863 334.503 421.746 333.606C420.966 328.77 418.275 325.494 415.467 322.374C409.305 315.471 406.224 312.039 401.193 308.217C389.688 299.52 379.197 294.957 367.536 290.004C358.527 286.182 352.521 283.647 343.785 281.541C329.823 278.304 319.332 275.769 314.028 280.605Z" fill="#424242"/>
<path opacity="0.11" d="M317.421 294.606C321.048 295.425 326.352 296.79 332.631 298.857C337.272 300.378 346.047 303.459 366.21 313.638C372.996 317.07 381.927 321.711 392.262 327.522C379.197 333.411 366.093 339.3 353.028 345.189C352.482 342.888 352.014 340.236 351.78 337.311C351.663 335.946 351.624 334.62 351.624 333.411C355.134 332.124 358.644 330.876 362.154 329.589C352.677 325.338 345.267 322.842 340.431 321.399C337.506 320.502 334.581 319.722 330.837 319.293C326.196 318.747 322.296 318.942 319.527 319.254C318.825 310.986 318.123 302.796 317.421 294.606Z" fill="#3D3D3D"/>
<path opacity="0.11" d="M319.371 318.513C325.806 317.538 335.868 316.797 347.763 319.332C357.942 321.477 365.82 325.26 371.046 328.263C364.806 331.968 358.605 335.673 352.365 339.378C352.053 337.389 351.741 335.439 351.429 333.45C354.978 332.124 358.527 330.798 362.037 329.472C354.51 326.196 348.153 323.934 343.434 322.452C338.364 320.814 335.907 320.268 334.464 319.956C328.263 318.669 323.037 318.474 319.371 318.513Z" fill="#3D3D3D"/>
<path d="M268.866 356.577C274.677 358.605 280.488 360.633 286.26 362.661C287.469 387.738 289.224 400.335 291.486 400.413C294.255 400.53 297.804 382.434 302.172 346.086C292.929 343.863 283.725 341.601 274.482 339.378C272.649 345.111 270.777 350.844 268.866 356.577Z" fill="#161616" stroke="#161616" stroke-width="1.16938" stroke-miterlimit="10"/>
<path d="M319.488 319.098C319.137 307.905 317.85 298.623 316.602 291.837C313.989 277.524 311.727 275.262 309.738 274.326C305.409 272.337 301.002 276.159 290.004 281.19C280.995 285.324 282.165 283.569 266.721 289.38C255.411 293.631 241.761 299.481 227.253 307.983C224.133 309.816 216.801 314.223 209.742 322.179C203.112 329.628 202.644 333.567 202.644 335.478C202.644 337.428 203.112 341.796 209.508 348.348C217.035 356.031 225.537 359.346 250.068 367.185C256.815 369.33 262.977 371.28 268.476 372.957C271.44 367.302 273.702 362.388 275.34 358.566C279.942 347.802 280.917 342.732 281.307 340.158C281.736 337.311 281.931 334.932 281.97 333.294C277.992 332.241 273.975 331.227 269.997 330.174C274.521 327.6 280.137 324.948 286.845 322.842C300.027 318.747 311.61 318.513 319.488 319.098Z" fill="#424242"/>
<path opacity="0.13" d="M311.337 297.804C294.567 305.955 283.53 311.688 278.577 314.067C265.551 320.229 252.837 325.884 240.474 331.11C249.951 329.784 259.233 334.23 263.913 342.303C269.022 351.078 267.618 362.466 260.403 370.071C263.055 371.007 265.668 371.943 268.32 372.918C270.66 368.511 272.415 364.806 273.663 362.115C276.744 355.368 278.733 351 280.254 345.033C281.424 340.509 281.892 336.726 282.087 334.23C277.953 332.865 273.819 331.461 269.685 330.096C273.429 328.068 277.719 326.04 282.555 324.285C296.946 319.059 310.05 318.396 319.41 318.825C319.332 316.251 319.254 313.638 319.059 310.908C318.708 305.253 318.123 299.91 317.421 294.918C316.017 295.542 313.911 296.595 311.337 297.804Z" fill="#3D3D3D"/>
<path opacity="0.15" d="M318.162 318.435C318.162 318.084 308.373 316.992 295.971 318.747C282.243 320.697 271.518 325.182 264.537 328.77C268.086 331.422 271.635 334.113 275.184 336.765C273.273 348.426 271.401 360.087 269.49 371.748C273.468 365.391 278.031 356.343 280.449 344.799C281.307 340.704 281.775 336.882 281.97 333.372C280.644 332.982 279.279 332.592 277.875 332.202C275.184 331.461 272.532 330.759 269.958 330.174C272.259 328.887 275.496 327.21 279.591 325.572C299.988 317.187 318.162 318.903 318.162 318.435Z" fill="#3D3D3D"/>
<path d="M347.957 189.735C349.946 189.072 352.949 192.153 354.743 193.947C357.629 196.872 359.072 199.836 359.501 200.733C364.805 211.731 363.869 207.363 368.354 217.581C373.853 230.178 377.597 242.073 377.597 242.073C379.43 247.884 380.561 252.213 384.11 257.556C388.127 263.562 391.442 265.161 392.807 265.707C397.331 267.579 401.621 266.76 403.532 266.253C405.599 264.225 407.198 262.47 408.29 261.222C410.513 258.687 411.449 257.322 413.204 257.127C413.594 257.088 415.388 256.893 416.324 257.946C416.753 258.414 416.831 258.921 417.26 259.038C417.806 259.194 418.352 258.57 419.015 257.946C419.288 257.673 421.082 255.996 422.954 255.216C423.929 254.787 425.801 254.241 426.347 254.943C426.893 255.645 425.684 257.127 426.23 257.673C426.776 258.219 428.102 256.971 429.506 257.556C430.286 257.907 430.949 258.765 430.988 259.584C431.066 260.598 430.208 260.832 430.052 262.158C429.896 263.25 430.403 263.445 430.325 264.342C430.169 265.707 428.921 265.902 427.205 267.891C426.23 269.022 426.503 269.1 424.748 271.713C424.085 272.688 423.227 273.975 422.564 274.716C419.99 277.602 415.622 277.836 413.321 277.992C408.875 278.226 405.365 276.9 403.376 275.964C402.05 276.9 400.022 278.07 397.409 278.967C390.662 281.19 384.734 279.63 382.316 278.967C372.683 276.276 367.028 268.983 363.284 263.991C357.707 256.581 355.679 250.146 352.013 238.446C350.882 234.897 347.489 223.626 346.163 208.533C345.617 201.669 344.72 190.827 347.957 189.735Z" fill="white"/>
<path d="M349.05 191.139C352.482 192.27 354.861 195.039 356.85 197.964C358.917 200.967 360.75 204.126 362.505 207.363C366.054 213.993 369.018 220.896 371.787 227.877C374.595 234.897 377.169 241.995 379.782 249.054C381.888 254.67 384.423 260.637 389.298 264.381C393.822 267.852 400.257 269.295 405.327 266.136C405.951 265.746 405.366 264.732 404.742 265.122C399.36 268.476 392.418 266.136 388.245 261.885C383.487 256.971 381.459 250.146 379.158 243.906C374.283 230.568 369.291 216.996 362.31 204.555C359.268 199.134 355.68 192.114 349.362 190.008C348.66 189.774 348.348 190.905 349.05 191.139Z" fill="#161616"/>
<path d="M348.66 228.93C352.131 240.942 355.056 253.5 362.193 263.952C368.082 272.61 376.818 279.513 387.543 280.371C393.354 280.839 399.243 279.435 403.923 275.925C404.508 275.496 403.923 274.443 403.338 274.911C397.878 279.045 390.819 280.098 384.189 278.733C377.637 277.368 371.982 273.585 367.497 268.749C357.318 257.712 353.925 242.658 349.869 228.657C349.596 227.916 348.465 228.228 348.66 228.93Z" fill="#161616"/>
<path d="M405.444 266.292C407.082 263.991 408.603 261.339 410.592 259.35C411.762 258.18 413.673 257.01 415.35 257.946C416.793 258.765 416.91 260.637 416.052 261.885C415.623 262.509 416.637 263.094 417.066 262.47C418.899 259.857 416.988 256.347 413.79 256.503C411.879 256.62 410.319 257.829 409.149 259.272C407.472 261.3 406.029 263.562 404.469 265.707C404.001 266.292 405.015 266.877 405.444 266.292Z" fill="#161616"/>
<path d="M410.865 261.183C410.007 262.899 411.06 264.888 412.971 265.2C415.272 265.551 416.949 263.601 417.339 261.534C417.495 260.793 416.364 260.481 416.208 261.222C415.974 262.47 415.311 263.757 413.946 264.03C412.659 264.303 411.216 263.172 411.879 261.807C412.191 261.105 411.177 260.52 410.865 261.183Z" fill="#161616"/>
<path d="M403.143 276.276C407.628 277.173 411.879 279.24 416.52 278.265C420.264 277.485 423.462 275.184 425.529 272.025C425.958 271.401 424.944 270.816 424.515 271.44C422.487 274.521 419.289 276.666 415.623 277.251C411.411 277.914 407.472 275.964 403.416 275.145C402.714 275.028 402.402 276.159 403.143 276.276Z" fill="#161616"/>
<path d="M414.18 264.03C412.932 264.771 413.088 266.487 414.141 267.384C415.038 268.125 416.247 268.008 417.339 268.008C419.211 267.969 420.771 268.281 422.409 269.217C423.072 269.568 423.657 268.593 422.994 268.203C421.785 267.501 420.498 267.033 419.094 266.877C418.431 266.799 417.768 266.838 417.066 266.838C416.637 266.838 416.208 266.877 415.818 266.799C415.35 266.682 413.829 265.629 414.765 265.083C415.389 264.654 414.804 263.64 414.18 264.03Z" fill="#161616"/>
<path d="M414.96 264.537C417.885 262.86 421.473 263.211 423.969 265.512C424.515 266.019 425.334 265.2 424.788 264.693C421.902 262.041 417.768 261.573 414.375 263.523C413.712 263.913 414.297 264.927 414.96 264.537Z" fill="#161616"/>
<path d="M417.495 259.779C418.782 258.843 420.03 257.946 421.317 257.01C421.863 256.62 422.37 256.23 422.955 255.879C423.345 255.645 423.735 255.411 424.164 255.255C425.997 254.631 426.426 255.528 425.412 257.946C424.71 258.18 425.022 259.311 425.724 259.077C427.83 258.336 428.571 255.489 426.387 254.28C425.178 253.578 423.735 254.085 422.643 254.709C420.654 255.84 418.821 257.439 416.949 258.765C416.286 259.233 416.871 260.247 417.495 259.779Z" fill="#161616"/>
<path d="M419.991 262.899C421.551 261.924 423.111 260.91 424.671 259.935C425.373 259.506 426.075 258.999 426.855 258.648C427.44 258.336 428.064 258.219 428.727 258.219C430.092 258.219 430.599 259.038 430.248 260.637C429.78 261.222 430.599 262.041 431.067 261.456C432.549 259.584 431.223 257.283 428.961 257.088C427.479 256.932 426.153 257.673 424.944 258.414C423.072 259.545 421.239 260.754 419.406 261.924C418.743 262.275 419.328 263.289 419.991 262.899Z" fill="#161616"/>
<path d="M424.554 264.732C425.607 264.147 426.66 263.601 427.713 263.094C428.064 262.899 429.234 262.197 429.585 262.275C430.56 262.47 429.897 263.445 429.663 263.835C429.273 264.459 430.287 265.083 430.677 264.42C431.301 263.406 431.847 261.417 430.17 261.105C429.273 260.91 428.298 261.534 427.518 261.924C426.309 262.509 425.1 263.094 423.93 263.757C423.306 264.108 423.93 265.122 424.554 264.732Z" fill="#161616"/>
<path d="M422.916 264.459C425.724 266.019 426.27 269.49 424.047 271.83C423.54 272.376 424.359 273.195 424.866 272.649C427.596 269.802 426.972 265.356 423.501 263.445C422.877 263.094 422.253 264.108 422.916 264.459Z" fill="#161616"/>
<path d="M430.092 264.03C428.844 265.629 427.401 267.033 425.802 268.203C425.217 268.632 425.763 269.646 426.387 269.217C428.103 267.969 429.624 266.526 430.95 264.849C431.379 264.264 430.56 263.445 430.092 264.03Z" fill="#161616"/>
<path d="M411.138 268.593C413.595 268.788 415.896 269.568 417.963 270.933C418.587 271.362 419.172 270.348 418.548 269.919C416.286 268.476 413.829 267.657 411.138 267.423C410.397 267.384 410.397 268.554 411.138 268.593Z" fill="#161616"/>
<path opacity="0.09" d="M344.019 199.173C344.721 204.165 345.852 211.185 347.529 219.609C348.621 225.069 349.401 229.086 350.844 234.429C353.028 242.541 354.822 249.366 359.034 257.283C361.803 262.47 363.675 266.019 367.575 269.841C370.344 272.532 377.598 279.63 388.518 279.786C395.187 279.864 400.452 277.329 403.533 275.418C405.366 276.432 408.525 277.797 412.62 277.875C414.531 277.914 418.119 277.953 421.512 275.613C422.682 274.794 425.802 272.688 426.036 269.139C426.075 268.593 426.231 265.629 424.125 264.069C421.785 262.353 417.963 263.367 417.651 264.576C417.378 265.707 420.186 266.643 420.108 268.242C419.991 270.27 415.389 271.518 414.531 271.752C387.075 279.162 372.294 266.877 372.294 266.877C367.809 263.133 365.43 259.077 359.892 245.232C355.329 233.844 349.596 218.283 344.019 199.173Z" fill="#3D3D3D"/>
<path d="M232.596 273.974C234.39 275.3 239.148 278.381 245.661 278.342C251.745 278.303 256.035 275.534 258.453 273.974C262.47 271.4 264.771 268.553 266.877 265.823C273.429 257.516 276.042 248.858 277.914 242.579C279.591 236.963 278.928 237.275 280.527 232.4C283.53 223.274 286.104 221.207 288.678 214.694C292.929 203.93 293.202 191.099 289.848 189.695C288.288 189.071 285.987 190.904 281.424 194.648C280.059 195.779 277.641 197.768 275.106 200.849C273.078 203.345 269.529 208.259 265.59 219.998C262.392 229.592 263.094 231.152 259.311 241.76C256.971 248.351 255.489 251.042 253.695 253.499C251.667 256.229 248.313 260.675 242.229 263.015C237.588 264.809 233.415 264.575 231.114 264.263C230.802 262.703 229.749 258.413 226.122 256.307C225.225 255.761 223.041 254.513 221.481 255.449C220.584 255.995 220.272 257.009 220.155 257.555C218.439 255.137 216.567 254.084 215.514 253.616C214.5 253.187 212.433 252.251 211.575 253.109C210.795 253.889 211.497 255.683 211.575 255.917C210.483 255.332 209.235 255.41 208.338 256.073C207.675 256.58 206.934 257.594 207.207 258.686C207.402 259.427 207.987 259.895 208.182 260.012C207.948 260.675 207.753 261.689 208.104 262.742C208.299 263.288 208.533 263.639 209.937 265.199C211.731 267.227 211.77 267.149 212.121 267.656C213.096 269.099 212.901 269.879 213.525 271.166C214.617 273.545 216.957 274.676 217.737 275.027C220.233 276.236 222.534 275.924 226.317 275.378C228.735 275.105 230.841 274.559 232.596 273.974Z" fill="white"/>
<path d="M289.731 188.643C283.764 191.646 278.382 195.78 274.209 201.045C270.036 206.31 267.15 212.394 264.966 218.712C262.782 225.108 261.222 231.699 259.545 238.212C257.946 244.53 255.255 251.082 251.043 256.113C246.129 262.002 238.485 264.264 231.036 263.406C230.295 263.328 230.295 264.498 231.036 264.576C236.925 265.239 243.048 264.108 247.923 260.637C253.071 256.971 256.308 250.848 258.609 245.076C261.066 238.953 262.158 232.284 263.952 225.966C265.863 219.141 268.203 212.355 271.947 206.31C276.393 199.095 282.75 193.479 290.316 189.696C291.018 189.306 290.394 188.292 289.731 188.643Z" fill="#161616"/>
<path d="M281.346 226.941C277.797 240.435 274.911 254.982 266.019 266.175C262.158 271.011 257.127 275.145 251.043 276.783C244.725 278.499 237.9 277.524 232.791 273.312C232.206 272.844 231.387 273.663 231.972 274.131C239.733 280.527 250.809 279.864 258.921 274.404C267.813 268.437 273.078 258.375 276.51 248.508C278.928 241.566 280.605 234.351 282.477 227.253C282.672 226.512 281.541 226.2 281.346 226.941Z" fill="#161616"/>
<path d="M231.66 263.991C230.295 261.885 229.008 259.662 227.487 257.673C226.434 256.269 225.03 254.943 223.158 254.787C219.921 254.592 218.517 258.297 220.077 260.754C220.467 261.378 221.481 260.793 221.091 260.169C220.35 258.999 220.389 257.049 221.715 256.23C223.587 255.06 225.498 256.971 226.512 258.297C228.033 260.286 229.281 262.47 230.646 264.576C231.036 265.2 232.05 264.615 231.66 263.991Z" fill="#161616"/>
<path d="M224.796 260.091C225.42 261.417 224.133 262.743 222.768 262.275C221.637 261.885 221.13 260.598 220.935 259.506C220.818 258.765 219.687 259.077 219.804 259.818C220.155 261.768 221.559 263.796 223.782 263.523C225.693 263.289 226.551 261.144 225.81 259.506C225.498 258.804 224.484 259.389 224.796 260.091Z" fill="#161616"/>
<path d="M232.479 273.468C228.891 274.248 225.381 276.159 221.637 275.574C218.088 275.028 215.124 272.766 213.33 269.763C212.94 269.1 211.926 269.724 212.316 270.348C214.149 273.429 217.035 275.769 220.584 276.588C224.874 277.563 228.696 275.496 232.791 274.599C233.532 274.443 233.22 273.312 232.479 273.468Z" fill="#161616"/>
<path d="M222.183 263.328C222.456 263.523 222.495 263.913 222.378 264.186C222.144 264.966 221.286 265.044 220.584 265.122C219.843 265.161 219.102 265.044 218.322 265.122C216.996 265.278 215.787 265.746 214.656 266.448C214.032 266.838 214.617 267.852 215.241 267.462C216.684 266.565 218.127 266.214 219.843 266.253C220.857 266.292 221.91 266.37 222.729 265.668C223.782 264.81 223.899 263.055 222.729 262.314C222.144 261.924 221.559 262.938 222.183 263.328Z" fill="#161616"/>
<path d="M222.612 261.846C219.531 259.857 215.631 260.403 213.057 263.016C212.511 263.562 213.369 264.381 213.876 263.835C216.099 261.612 219.336 261.144 222.027 262.86C222.651 263.25 223.236 262.236 222.612 261.846Z" fill="#161616"/>
<path d="M220.428 257.166C218.829 255.879 217.269 254.514 215.592 253.344C214.578 252.642 213.291 251.94 212.043 252.408C209.586 253.305 210.093 256.581 212.238 257.4C212.94 257.673 213.252 256.542 212.55 256.269C211.107 254.553 211.224 253.773 212.901 253.929C213.525 253.617 214.071 253.656 214.539 254.046C215.202 254.358 215.826 255.021 216.411 255.45C217.464 256.308 218.556 257.166 219.609 258.024C220.155 258.453 221.013 257.634 220.428 257.166Z" fill="#161616"/>
<path d="M218.01 260.208C216.333 259.038 214.656 257.829 212.979 256.698C211.887 255.957 210.678 255.255 209.352 255.372C207.246 255.567 205.959 257.868 207.246 259.662C207.675 260.247 208.689 259.662 208.26 259.077C207.402 257.517 208.104 256.698 210.288 256.62C210.795 256.776 211.263 256.971 211.692 257.244C212.238 257.556 212.745 257.946 213.252 258.297C214.656 259.272 216.06 260.247 217.464 261.222C218.049 261.651 218.634 260.637 218.01 260.208Z" fill="#161616"/>
<path d="M213.837 262.041C212.784 261.378 211.692 260.754 210.561 260.208C209.82 259.818 208.806 259.116 207.909 259.428C206.505 259.935 207.051 261.807 207.597 262.743C207.948 263.406 208.962 262.821 208.611 262.158C208.494 261.924 208.065 261.222 208.182 260.949C208.338 260.559 208.962 260.793 209.235 260.871C209.547 260.949 209.859 261.183 210.171 261.339C211.224 261.885 212.238 262.47 213.252 263.094C213.876 263.445 214.5 262.431 213.837 262.041Z" fill="#161616"/>
<path d="M214.227 261.768C210.951 263.796 210.522 268.125 212.979 270.972C213.486 271.557 214.305 270.699 213.798 270.153C211.848 267.891 212.199 264.381 214.812 262.782C215.436 262.392 214.851 261.378 214.227 261.768Z" fill="#161616"/>
<path d="M207.363 263.055C208.533 264.693 209.898 266.175 211.497 267.462C212.082 267.93 212.901 267.111 212.316 266.643C210.795 265.434 209.508 264.069 208.377 262.47C207.909 261.846 206.895 262.431 207.363 263.055Z" fill="#161616"/>
<path d="M225.498 265.746C223.041 265.98 220.74 266.799 218.712 268.242C218.088 268.671 218.673 269.685 219.297 269.256C221.169 267.93 223.197 267.111 225.498 266.916C226.278 266.838 226.278 265.668 225.498 265.746Z" fill="#161616"/>
<path opacity="0.17" d="M287.781 204.165C282.906 216.021 279.162 225.576 276.783 231.816C271.206 246.324 269.646 251.394 264.381 258.063C259.896 263.718 254.592 270.777 245.622 272.142C240.006 273 235.248 271.284 232.479 270.036C231.777 270.582 226.434 274.404 221.247 272.376C218.361 271.245 215.514 268.32 216.099 266.526C216.684 264.693 220.584 264.81 220.545 263.952C220.506 263.25 217.815 262.275 215.397 263.016C215.046 263.133 212.667 263.913 211.887 266.058C210.873 268.905 213.525 271.83 214.227 272.61C217.815 276.588 223.314 276.393 224.289 276.354C228.228 276.237 231.114 274.482 232.479 273.546C234.234 275.028 237.315 277.212 241.605 277.992C249.522 279.474 255.918 275.028 259.428 272.844C269.451 266.487 273.234 256.347 276.315 248.703C277.797 244.998 278.46 242.58 282.087 227.799C284.349 218.439 286.299 210.405 287.781 204.165Z" fill="#3D3D3D"/>
<path opacity="0.17" d="M209.039 256.191C210.365 255.957 212.081 259.467 213.251 262.275C212.666 265.278 211.925 265.941 211.379 266.019C209.819 266.292 207.168 262.47 207.636 258.999C207.675 258.726 207.986 256.386 209.039 256.191Z" fill="#3D3D3D"/>
<path d="M289.302 188.916C281.931 197.379 281.775 207.831 281.736 226.161C281.697 248.352 285.675 267.033 289.926 280.956C296.322 282.867 305.604 284.895 316.875 284.895C327.99 284.895 337.155 282.867 343.512 280.956C344.955 274.989 346.866 266.214 348.348 255.528C353.457 219.297 356.811 195.468 343.512 183.768C330.096 171.99 301.899 174.447 289.302 188.916Z" fill="white" stroke="#161616" stroke-width="1.16938" stroke-miterlimit="10"/>
<path opacity="0.1" d="M325.845 177.021C327.522 180.453 329.745 185.757 331.149 192.504C332.436 198.666 334.425 212.355 323.154 246.441C319.956 256.152 315.12 269.178 307.905 284.154C310.986 284.466 314.301 284.661 317.811 284.622C327.834 284.583 336.531 282.945 343.434 280.995C346.398 266.487 348.504 254.124 349.947 244.725C351.741 233.181 352.989 223.431 352.599 211.107C352.131 195.507 349.479 190.983 347.997 188.877C341.64 179.595 330.174 177.567 325.845 177.021Z" fill="#3D3D3D"/>
<path opacity="0.13" d="M351.975 200.226C350.22 205.53 347.685 213.72 345.189 223.938C342.069 236.691 341.601 242.034 339.885 248.859C337.584 257.751 332.787 270.309 321.516 284.661C325.221 284.778 330.174 284.505 335.79 282.984C338.754 282.165 341.367 281.112 343.512 280.098C345.501 269.256 347.256 259.077 348.816 249.639C351.585 233.103 352.56 226.278 352.677 217.23C352.794 210.093 352.365 204.243 351.975 200.226Z" fill="#3D3D3D"/>
<path d="M308.529 167.817C307.242 169.572 307.866 171.171 307.593 177.723C307.398 182.013 306.969 185.445 306.657 187.629C307.983 188.565 311.727 190.944 317.031 190.944C323.271 190.944 327.444 187.668 328.575 186.693C328.068 185.289 327.444 183.183 326.937 180.57C325.494 173.121 326.976 170.82 325.299 168.285C322.296 163.8 311.61 163.605 308.529 167.817Z" fill="white" stroke="#161616" stroke-width="1.16938" stroke-miterlimit="10"/>
<path d="M292.734 146.796C292.578 152.334 293.826 156.468 294.84 159.783C296.361 164.658 298.038 170.118 302.874 175.11C307.086 179.478 312 181.74 315.861 182.91C318.825 181.701 323.7 179.244 328.146 174.408C332.982 169.143 334.815 163.8 336.18 159.783C337.35 156.312 339.339 150.033 338.52 141.843C337.935 136.11 337.311 129.909 332.397 125.112C325.143 118.053 314.535 119.886 313.053 120.159C302.757 122.07 297.57 130.221 296.322 132.444C292.968 138.138 292.812 143.715 292.734 146.796Z" fill="white" stroke="#161616" stroke-width="1.16938" stroke-miterlimit="10"/>
<path d="M313.209 151.047C312.975 156.039 313.443 160.992 314.652 165.828C314.769 166.218 315.354 166.413 315.627 166.101C316.524 165.048 317.109 163.917 317.382 162.552C317.538 161.811 316.407 161.499 316.251 162.24C316.017 163.449 315.588 164.346 314.808 165.282C315.12 165.36 315.471 165.438 315.783 165.555C314.613 160.797 314.184 155.961 314.379 151.086C314.379 150.306 313.209 150.306 313.209 151.047Z" fill="#161616"/>
<path d="M321.399 152.763C324.168 155.688 329.745 156.507 331.227 151.788C331.461 151.086 330.33 150.774 330.096 151.476C328.887 155.337 324.363 154.128 322.257 151.905C321.672 151.398 320.853 152.217 321.399 152.763Z" fill="#161616"/>
<path d="M301.859 160.328C301.859 160.211 301.82 160.367 301.781 160.367C301.742 160.406 301.665 160.406 301.587 160.406C301.47 160.173 301.314 159.939 301.197 159.705C301.236 159.666 301.236 159.627 301.275 159.588C300.963 159.666 300.768 159.978 300.885 160.289C300.963 160.601 301.314 160.796 301.587 160.679C301.937 160.562 302.171 160.328 302.327 159.978C302.444 159.705 302.21 159.315 301.937 159.276C301.431 159.159 300.846 159.432 300.729 159.978C300.69 160.289 300.807 160.64 301.119 160.679C301.431 160.835 301.82 160.679 301.859 160.328Z" fill="#161616"/>
<path d="M307.631 158.808C307.553 159.392 307.397 159.431 307.164 158.925C306.735 158.574 306.813 158.418 307.397 158.496C307.125 158.34 306.774 158.418 306.579 158.691C306.423 158.964 306.501 159.353 306.774 159.509C307.436 159.899 308.255 159.042 307.748 158.418C307.242 157.794 306.228 158.34 306.423 159.08C306.501 159.392 306.852 159.587 307.125 159.47C307.553 159.47 307.709 159.119 307.631 158.808Z" fill="#161616"/>
<path d="M305.526 162.864C305.526 162.942 305.487 163.019 305.409 163.097C305.487 163.019 305.331 163.136 305.37 163.097C305.409 163.058 305.253 163.136 305.37 163.097C305.292 163.097 305.253 163.097 305.292 163.097C305.331 163.097 305.331 163.097 305.214 163.097C305.175 163.097 305.175 163.058 305.136 163.058C305.175 163.097 305.175 163.058 305.097 163.019C304.941 162.864 304.941 162.63 305.058 162.474C305.214 162.318 305.487 162.396 305.565 162.552C305.409 162.279 305.058 162.201 304.746 162.357C304.473 162.513 304.356 162.903 304.551 163.175C304.785 163.565 305.292 163.682 305.682 163.448C306.072 163.253 306.228 162.747 305.994 162.357C305.526 161.616 304.278 162.045 304.278 162.864C304.278 163.175 304.551 163.448 304.863 163.448C305.253 163.448 305.526 163.214 305.526 162.864Z" fill="#161616"/>
<path d="M325.377 157.911C325.649 157.95 325.805 158.106 325.844 158.301C325.883 158.535 325.727 158.69 325.377 158.807C325.26 158.768 325.182 158.768 325.065 158.729C324.87 158.612 324.831 158.457 324.948 158.262C325.143 157.95 325.727 158.067 325.61 158.496C325.688 158.184 325.532 157.833 325.221 157.794C324.909 157.716 324.597 157.872 324.519 158.184C324.363 158.729 324.831 159.314 325.415 159.236C325.922 159.158 326.234 158.651 326.078 158.145C326 157.872 325.727 157.638 325.415 157.638C325.182 157.638 324.948 157.794 324.831 157.989C324.597 158.418 324.909 159.119 325.454 159.08C325.766 159.041 326.039 158.846 326.039 158.496C325.961 158.223 325.727 157.872 325.377 157.911Z" fill="#161616"/>
<path d="M329.783 158.34C329.822 158.34 329.822 158.301 329.783 158.34C329.744 158.378 329.666 158.456 329.589 158.534C329.355 158.456 329.16 158.378 328.926 158.262C328.926 158.145 328.926 158.067 328.926 157.95C328.926 157.911 328.965 157.911 328.965 157.872C329.043 157.794 329.121 157.716 329.16 157.677C329.394 157.755 329.589 157.833 329.822 157.95C329.822 158.067 329.822 158.145 329.822 158.262V158.223C329.9 157.911 329.744 157.56 329.433 157.521C329.121 157.443 328.809 157.599 328.731 157.911C328.536 158.69 329.705 159.158 330.056 158.378C330.212 158.067 330.056 157.677 329.744 157.521C329.394 157.326 329.004 157.443 328.809 157.755C328.614 158.028 328.77 158.417 329.004 158.573C329.277 158.729 329.627 158.573 329.783 158.34Z" fill="#161616"/>
<path d="M327.638 162.2C327.599 162.084 327.638 162.201 327.599 162.239C327.599 162.278 327.482 162.356 327.599 162.278C327.287 162.239 326.976 162.2 326.664 162.162C326.43 161.811 326.859 161.499 327.171 161.655C326.898 161.499 326.547 161.577 326.352 161.85C326.196 162.123 326.274 162.512 326.547 162.668C326.859 162.824 327.248 162.785 327.482 162.512C327.716 162.278 327.794 161.85 327.599 161.538C327.404 161.226 326.937 161.148 326.664 161.421C326.391 161.694 326.274 162.123 326.391 162.473C326.508 162.785 326.781 162.98 327.093 162.863C327.521 162.863 327.755 162.512 327.638 162.2Z" fill="#161616"/>
<path d="M310.635 169.065C313.404 171.951 317.811 171.873 320.424 168.792C320.892 168.207 320.073 167.388 319.605 167.973C317.421 170.547 313.833 170.703 311.454 168.246C310.947 167.7 310.128 168.519 310.635 169.065Z" fill="#161616"/>
<path d="M303.459 145.431C304.629 144.144 306.267 143.598 307.983 143.949C308.724 144.105 309.036 142.974 308.295 142.818C306.189 142.389 304.083 143.013 302.64 144.612C302.133 145.158 302.952 145.977 303.459 145.431Z" fill="#161616"/>
<path d="M321.789 143.052C323.583 142.857 325.221 143.286 326.664 144.339C327.288 144.768 327.873 143.754 327.249 143.325C325.65 142.155 323.739 141.648 321.789 141.882C321.048 141.96 321.048 143.13 321.789 143.052Z" fill="#161616"/>
<path d="M301.353 153.114C304.122 156.039 309.699 156.858 311.181 152.139C311.415 151.437 310.284 151.125 310.05 151.827C308.841 155.688 304.317 154.479 302.211 152.256C301.665 151.71 300.807 152.568 301.353 153.114Z" fill="#161616"/>
<path d="M314.224 128.622C316.759 131.664 319.801 134.94 323.467 138.255C328.459 142.779 333.334 146.289 337.585 148.941C337.351 152.451 336.61 157.833 333.958 163.878C331.345 169.884 327.874 174.057 325.495 176.592C325.261 178.464 325.183 181.662 326.704 184.86C330.253 192.309 340.471 195.663 348.31 193.128C349.246 192.816 355.837 190.593 357.982 184.665C358.567 183.027 358.879 181.038 357.982 175.773C356.695 168.168 354.433 162.591 353.77 160.875C351.898 156.117 349.48 149.253 347.296 140.283C346.594 137.163 343.708 125.97 333.568 119.496C330.916 117.78 325.222 114.153 318.046 115.245C314.926 115.713 312.508 116.922 310.987 117.858C307.711 118.131 301.861 119.067 296.245 123.123C283.531 132.249 283.882 148.707 283.921 150.384C283.531 152.451 282.868 155.571 281.698 159.276C278.812 168.324 276.394 169.455 275.848 175.032C275.692 176.436 274.99 183.534 279.67 189.345C280.645 190.554 283.648 194.181 288.757 195.195C295.543 196.56 302.836 192.738 305.839 186.732C307.516 183.378 307.477 180.141 307.321 178.425C306.19 177.411 295.777 167.973 297.025 153.27C298.429 136.539 313.522 128.973 314.224 128.622Z" fill="#444444"/>
<path opacity="0.11" d="M328.653 142.779C329.355 145.431 330.135 149.448 329.706 154.284C329.16 160.446 326.976 164.775 324.714 169.221C322.92 172.731 320.112 177.528 315.666 182.559C316.368 182.442 317.187 182.208 318.006 181.896C319.917 181.194 321.36 180.219 322.335 179.4C322.023 183.066 321.711 186.732 321.438 190.398C323.661 189.423 325.884 188.487 328.107 187.512C327.639 183.612 327.132 179.751 326.664 175.851C327.6 174.681 328.926 172.965 330.33 170.742C332.28 167.661 335.049 163.215 336.492 157.014C336.96 155.025 337.428 152.1 337.389 148.512C334.503 146.64 331.578 144.69 328.653 142.779Z" fill="#3D3D3D"/>
<path opacity="0.16" d="M337.428 149.214C337.116 149.136 336.258 153.153 333.645 159.159C333.645 159.159 331.695 163.605 329.472 167.388C327.405 170.898 323.31 176.787 315.588 182.949C316.446 183.339 317.343 183.729 318.201 184.119C320.736 183.846 323.271 183.612 325.806 183.339C325.689 181.194 325.533 179.049 325.416 176.943C328.458 173.823 332.631 168.714 335.244 161.382C337.35 155.259 337.818 149.292 337.428 149.214Z" fill="#3D3D3D"/>
<path opacity="0.29" d="M279.045 166.491C278.967 167.778 279.045 170.001 280.098 172.38C281.619 175.773 285.168 179.478 288.99 179.439C293.631 179.4 298.779 173.784 298.545 165.828C299.286 167.7 300.417 169.962 302.094 172.38C304.005 175.149 306.072 177.216 307.71 178.659C307.749 179.946 307.632 181.935 306.93 184.158C306.54 185.406 305.565 187.941 303.381 190.32C302.445 191.334 299.403 194.61 294.489 195.429C287.352 196.599 281.97 191.646 280.995 190.71C274.599 184.587 275.691 175.929 275.886 174.603C276.432 170.82 277.992 168.051 279.045 166.491Z" fill="#0A0A0A"/>
<path opacity="0.12" d="M337.701 149.058C338.013 150.969 338.442 154.011 338.754 157.833C339.417 166.023 338.754 168.207 340.08 172.38C340.275 173.043 343.278 182.247 347.685 182.325C351.117 182.403 354.939 177.021 356.46 169.104C357.669 173.043 358.176 176.397 358.41 178.776C358.8 182.637 358.449 183.924 358.293 184.548C357.201 188.097 354.315 190.047 352.794 191.1C347.412 194.766 341.601 194.22 340.743 194.103C339.378 193.947 333.06 193.128 328.848 187.824C328.185 187.005 326.079 184.236 325.455 180.102C325.26 178.737 325.26 177.528 325.338 176.709C327.717 174.369 330.876 170.664 333.45 165.438C336.648 158.808 337.467 152.763 337.701 149.058Z" fill="#0A0A0A"/>
</svg>
